<?xml version="1.0" standalone="no"?>
<!DOCTYPE svg PUBLIC "-//W3C//DTD SVG 1.1//EN" "http://www.w3.org/Graphics/SVG/1.1/DTD/svg11.dtd" >
<svg xmlns="http://www.w3.org/2000/svg" xmlns:xlink="http://www.w3.org/1999/xlink" version="1.1">
<metadata>
Created by FontForge 20170731 at Tue Dec 28 22:32:27 1926
 By Aleksey,,,
Copyright (C) 1992
</metadata>
<defs>
<font id="Benguiat" horiz-adv-x="1923" >
  <font-face 
    font-family="Benguiat"
    font-weight="400"
    font-stretch="normal"
    units-per-em="2048"
    panose-1="2 11 114 0 0 0 0 0 0 0"
    ascent="1638"
    descent="-410"
    x-height="1010"
    cap-height="1348"
    bbox="-262 -449 2554 1739"
    underline-thickness="10"
    underline-position="-82"
    unicode-range="U+0020-2122"
  />
<missing-glyph horiz-adv-x="1465" 
d="M91 0v1465h1283v-1465h-1283zM1283 91v1283h-1101v-1283h1101z" />
    <glyph glyph-name=".notdef" horiz-adv-x="1465" 
d="M91 0v1465h1283v-1465h-1283zM1283 91v1283h-1101v-1283h1101z" />
    <glyph glyph-name=".null" horiz-adv-x="0" 
 />
    <glyph glyph-name="nonmarkingreturn" horiz-adv-x="656" 
 />
    <glyph glyph-name="space" unicode=" " horiz-adv-x="656" 
 />
    <glyph glyph-name="exclam" unicode="!" horiz-adv-x="697" 
d="M529 1348q-44 -94 -66 -193.5t-22 -203.5v-201q0 -231 57 -402q-68 62 -152 62q-81 0 -149 -62q57 170 57 402v201q0 105 -21 202t-67 195h363zM207 123q0 62 40 105t99 43q53 0 91 -43t38 -99q0 -53 -39 -101.5t-96 -48.5q-54 0 -93.5 44t-39.5 100z" />
    <glyph glyph-name="quotedbl" unicode="&#x22;" horiz-adv-x="574" 
d="M129 1348h103v-412h-103v412zM340 1348h103v-412h-103v412z" />
    <glyph glyph-name="numbersign" unicode="#" horiz-adv-x="1311" 
d="M948 969h232l-31 -102h-227l-90 -369h239l-30 -102h-234l-94 -396h-109l95 396h-226l-94 -396h-113l95 396h-232l31 102h225l92 369h-239l31 102h231l88 379h113l-90 -379h225l90 379h108zM588 867l-90 -369h223l90 369h-223z" />
    <glyph glyph-name="dollar" unicode="$" horiz-adv-x="1311" 
d="M555 649l-18 5q-115 20 -194 46.5t-135 87.5t-56 160q0 73 37.5 129.5t93.5 92.5t133 59l34 8l37 7q36 6 68 6v53q0 86 -11 120q-9 39 -52 46v18h237v-18q-51 0 -51 -92l1 -34l1 -26v-67l52 -3l70 -10q75 -12 101 -12q46 0 66 20l55 -376h-16q-39 128 -145.5 204
t-243.5 76q-244 0 -244 -141q0 -101 219 -148l225 -45q152 -27 236 -93t84 -208q0 -116 -65 -213.5t-170 -153.5q-49 -26 -109.5 -44.5t-114.5 -18.5v-53l-1 -38l-1 -32q0 -36 10 -54t47 -30v-19h-235v19q57 0 57 90l-1 30l-1 26v61q-63 0 -137 16q-21 5 -51.5 10.5
t-38.5 6.5q-47 0 -80 -49l-125 477l19 2q59 -115 107.5 -178.5t120.5 -106.5t185 -69v456zM680 191q54 0 100 19.5t91 58.5q80 69 80 176q0 54 -24 87l-28 29q-14 11 -34 22q-31 15 -95 29l-90 17v-438z" />
    <glyph glyph-name="percent" unicode="%" horiz-adv-x="1843" 
d="M1077 1180l20 44l15 38q6 18 6 33q0 34 -43 34v19h230v-19q-26 0 -53 -31q-24 -30 -42 -72l-30 -71l-432 -1024q-25 -68 -29 -88q0 -24 39 -24v-19h-229v19q40 12 54.5 30.5t43.5 81.5zM748 951q0 -105 -34.5 -199.5t-110.5 -156.5t-181 -62q-111 0 -185 56.5t-112.5 156
t-38.5 205.5q0 105 37.5 203t115.5 159t185 61q165 0 244.5 -125t79.5 -298zM234 926q0 -72 15 -144t55.5 -124t109.5 -52q108 0 147 122t39 263q0 117 -36 213.5t-134 96.5q-111 0 -153.5 -117.5t-42.5 -257.5zM1749 398q0 -101 -36 -198t-111 -159t-178 -62
q-112 0 -186.5 59t-112 155t-37.5 205t36.5 203.5t114 157t187.5 62.5q164 0 243.5 -124.5t79.5 -298.5zM1235 373q0 -72 15 -144t55.5 -124t109.5 -52q108 0 147 121q20 63 30 126.5t10 138.5q0 116 -36.5 212.5t-133.5 96.5q-110 0 -153.5 -117.5t-43.5 -257.5z" />
    <glyph glyph-name="ampersand" unicode="&#x26;" horiz-adv-x="1802" 
d="M1174 0v19q90 17 90 82t-90 161q-53 -92 -136.5 -155t-191.5 -100q-52 -16 -106 -25t-107 -9q-128 0 -248.5 53.5t-198 156.5t-77.5 235q0 105 46 190t127.5 142.5t186.5 81.5q-160 95 -160 258q0 87 54 155q25 30 59 54t77 43q85 32 171 32q84 0 158 -30t122 -93
t48 -149q0 -43 -19 -84q97 -61 191.5 -94t175.5 -33q66 0 121 31.5t55 91.5q0 35 -24 58q-11 10 -25 16t-31 6q-43 0 -96 -37q26 51 74.5 85t101.5 34q75 0 123 -52q21 -22 34 -55.5t13 -72.5q0 -72 -41.5 -132.5t-110.5 -93.5q-34 -16 -69 -24t-76 -8q-84 0 -178 49
q51 -108 51 -226q0 -57 -12 -104q150 -135 268 -340q27 -45 51 -69q21 -18 70 -29v-19h-471zM1065 365l-467 370l-67 52q-97 -61 -147 -141t-50 -191q0 -102 43.5 -185t124.5 -131.5t186 -48.5q81 0 160.5 31.5t142 86t103.5 130.5zM844 1114q0 77 -49 123.5t-127 46.5
q-70 0 -118 -38t-48 -103q0 -66 56 -129.5t130 -105.5q64 30 112 84q19 24 31.5 55.5t12.5 66.5zM1159 545l2 61q0 125 -48.5 230t-141.5 168q-65 -106 -227 -137z" />
    <glyph glyph-name="quotesingle" unicode="'" horiz-adv-x="369" 
d="M133 1348h103v-412h-103v412z" />
    <glyph glyph-name="parenleft" unicode="(" horiz-adv-x="697" 
d="M533 -295q-87 79 -154 175q-62 91 -113 205q-46 108 -73 227q-11 52 -18 113l-5 60l-2 56q0 157 43.5 320.5t124.5 298.5q41 70 89 129t108 112l61 -55q-103 -60 -182 -284q-38 -113 -57 -229q-9 -57 -14 -117t-5 -124q0 -85 6 -160t20 -151q26 -145 70.5 -259t89.5 -177
t84 -75z" />
    <glyph glyph-name="parenright" unicode=")" horiz-adv-x="697" 
d="M164 1401q31 -27 80 -81l35 -43l37 -49q33 -47 62 -99q26 -47 54 -108q22 -54 39 -107l32 -118q26 -121 26 -231q0 -85 -9.5 -159t-34.5 -160q-11 -41 -25 -82t-28 -74q-26 -64 -72 -143q-77 -138 -196 -242l-61 55q67 39 126 151.5t95.5 278t36.5 324.5q0 164 -27 314.5
t-70 257.5q-21 54 -43 99.5t-46 76.5q-44 62 -85 74z" />
    <glyph glyph-name="asterisk" unicode="*" horiz-adv-x="1065" 
d="M447 1034l14 21l-18 6q-86 27 -146 27l-25 -1q-11 0 -36 -7l55 157q48 -54 170 -94l23 -6v16q0 123 -48 195h170q-38 -59 -38 -184v-27l16 4l59 21q28 9 49 22q41 22 66 59l55 -153l-37 2q-48 0 -155 -29l-25 -8l41 -49q65 -75 121 -98l-135 -99q-9 78 -82 176l-14 21
l-11 -15q-66 -92 -84 -182l-135 99q42 12 63 32q13 10 25 23l29 33z" />
    <glyph glyph-name="plus" unicode="+" horiz-adv-x="1229" 
d="M555 537v422h115v-422h422v-115h-422v-422h-115v422h-420v115h420z" />
    <glyph glyph-name="comma" unicode="," horiz-adv-x="656" 
d="M264 -174h-170q33 24 76 118l74 159q37 86 37 116q0 18 -4 23h221z" />
    <glyph glyph-name="hyphen" unicode="-" horiz-adv-x="533" 
d="M443 412q-12 8 -33 12l-55 4h-179q-61 0 -96.5 -8.5t-58.5 -44.5h-17l86 229q14 -8 34.5 -12t53.5 -4h179q60 0 96 9t59 44h17z" />
    <glyph glyph-name="period" unicode="." horiz-adv-x="656" 
d="M162 123q0 62 40 105t99 43q53 0 91 -43t38 -99q0 -53 -39 -101.5t-96 -48.5q-54 0 -93.5 44t-39.5 100z" />
    <glyph glyph-name="slash" unicode="/" horiz-adv-x="860" 
d="M230 -119q-33 -81 -33 -113q0 -21 5.5 -26.5t35.5 -20.5v-16h-244v16q45 12 67 44q15 22 46 93l524 1322q33 80 33 102q0 38 -47 47v19h250v-19q-23 0 -36 -8q-15 -6 -25 -19l-21 -33l-21 -46l-20 -57z" />
    <glyph glyph-name="zero" unicode="0" horiz-adv-x="1311" 
d="M1182 674q0 -157 -40 -286q-5 -19 -13 -41q-3 -8 -9.5 -25.5t-11 -28t-13.5 -26.5q-27 -51 -66 -102q-71 -89 -176.5 -140.5t-225.5 -51.5q-125 0 -228.5 54.5t-174.5 151.5q-66 91 -107 224q-17 61 -27 130q-4 30 -7 67.5t-3 67.5q0 132 39 261.5t111 228t181 157.5
t234 59q117 0 214 -46.5t169 -137.5t113 -228t41 -288zM627 72q112 0 187.5 91.5t108.5 241.5q14 67 24 151t10 169q0 84 -8 153.5t-26 135.5q-33 125 -103 193.5t-168 68.5q-194 0 -271 -204q-38 -104 -57 -212.5t-19 -230.5q0 -123 27 -248.5t100 -217t195 -91.5z" />
    <glyph glyph-name="one" unicode="1" horiz-adv-x="1311" 
d="M543 1020q0 61 -5 103t-18 77q-21 68 -104 68l-90 -8v18l450 123v-1071l3 -98l1 -38l7 -37q9 -58 58 -98q23 -18 61 -30l40 -7l48 -3v-19h-668v19q103 0 147.5 37t57 99.5t12.5 174.5v690z" />
    <glyph glyph-name="two" unicode="2" horiz-adv-x="1311" 
d="M1067 -27q-9 14 -27 22q-22 5 -63 5h-917l30 25l114 96l158 135q88 77 193 195q30 33 57 65q31 37 51 63l48 62l47 71q22 35 41 72.5t32 72t20 70.5q3 18 5 35.5t2 37.5q0 126 -76 193t-206 67q-87 0 -158.5 -33t-126.5 -100q-30 -39 -43 -89q-4 -23 -7 -56t-3 -64
l-21 -4l-77 356q54 24 140 53q38 12 76 21t83 17q86 13 149 13q60 0 117 -9q15 -2 26 -3.5t32 -7.5l59 -18q115 -36 192.5 -118t77.5 -204q0 -102 -46 -191q-23 -46 -56 -92q-11 -15 -26 -34q-24 -30 -52 -64l-310 -303l-151 -129h346l56 1h18h14q10 2 14 2l87 10
q50 8 102.5 46t89.5 125l20 -4z" />
    <glyph glyph-name="three" unicode="3" horiz-adv-x="1311" 
d="M731 979q126 -12 233 -73t171.5 -161t64.5 -231q0 -160 -87 -281t-238 -190.5t-303 -69.5q-252 0 -519 162l211 314l13 -8q-23 -55 -23 -105q0 -74 50.5 -131.5t126 -87t147.5 -29.5q103 0 198 48.5t155 136t60 192.5q0 114 -66 195t-172 123q-53 21 -106.5 32t-109.5 11
h-28q-25 -3 -40 -4q-17 0 -42.5 -3.5t-57.5 -9.5l457 359h-320q-90 0 -129 -7q-45 -6 -81 -35q-17 -13 -35 -35q-15 -21 -33 -57l-19 5l96 335q12 -14 34 -20l41 -6h40h651l41 -70z" />
    <glyph glyph-name="four" unicode="4" horiz-adv-x="1311" 
d="M1159 334q-11 26 -31 36q-21 7 -69 7h-133v-117q0 -111 21 -174q9 -29 36 -49q27 -18 66 -18v-19h-455v19q81 9 102 69t21 172v117h-502q-104 0 -157 -18q0 34 15 76l17 41l24 41q27 48 65 97l69 95q54 76 96 145t70.5 130t42.5 111.5t14 94.5q0 84 -55 84l285 213
q12 -47 12 -96q0 -91 -25 -166q-11 -36 -31 -79.5t-46 -88.5l-201 -301l-84 -113q-72 -98 -92 -141h483v575q150 48 209 234h27l-19 -118l-5 -59l-2 -57l-1 -139v-436h51q103 0 150 16t80 80l18 -4z" />
    <glyph glyph-name="five" unicode="5" horiz-adv-x="1311" 
d="M930 1090l-18 4v14q0 33 -25 46q-30 10 -82 10h-452q0 -118 -33 -232l61 9l34 4l35 1l93 7l63 2q146 0 281 -54.5t221 -164t86 -257.5q0 -115 -53 -208q-27 -48 -62 -87t-85 -75q-88 -64 -208 -102t-239 -38q-258 0 -491 142l192 319l16 -10q-18 -44 -18 -86
q0 -100 77 -178t232 -78q103 0 199.5 47.5t157.5 133.5t61 190q0 113 -66 184t-172 103q-52 15 -104 24q-27 4 -53 6t-60 2q-194 0 -366 -71q22 54 39 107q13 45 20.5 76t10.5 47q26 130 26 257l-3 95l-3 39q0 16 -8 54q39 -24 127 -24h544h11q43 0 54 4q19 3 36 20z" />
    <glyph glyph-name="six" unicode="6" horiz-adv-x="1311" 
d="M973 998l-20 6v45q0 68 -25 114.5t-78 75.5t-117 29q-119 0 -221 -75q-48 -36 -87 -87l-36 -52l-30 -58q-54 -122 -54 -256q74 77 180 120q54 21 107.5 32t110.5 11q129 0 240.5 -56.5t177 -162.5t65.5 -239q0 -140 -71.5 -246.5t-194 -166t-262.5 -59.5q-188 0 -316 90
t-189 245.5t-61 336.5q0 229 82.5 394t233.5 250t350 85q173 0 328 -55zM406 690q-88 -91 -88 -245q0 -91 42 -179t119 -141t173 -53q94 0 172 48q34 22 64 55.5t50 75.5q39 81 39 177q0 166 -90 271q-40 47 -99 72.5t-118 25.5q-154 0 -264 -107z" />
    <glyph glyph-name="seven" unicode="7" horiz-adv-x="1311" 
d="M926 1348h49q102 0 127 47l6 -36l2 -28q0 -117 -43 -218q-22 -54 -55 -115l-80 -146l-77 -135l-95 -176q-55 -108 -98 -250.5t-43 -290.5h-258l3 66q1 14 4 32t7 36q14 75 41 139l24 64l29 62q28 60 62 113q68 107 145 202l107 130l67 87l55 78q43 65 74 157h-577
q-90 0 -130 -8q-49 -6 -87 -40q-35 -29 -68 -104l-18 6l102 357q12 -18 32 -24l35 -5h33h625z" />
    <glyph glyph-name="eight" unicode="8" horiz-adv-x="1311" 
d="M1190 402q0 -137 -80.5 -234t-209.5 -148q-22 -8 -57 -17.5t-72 -17.5q-66 -12 -136 -12q-98 0 -198.5 23.5t-181.5 74t-131 131t-50 185.5q0 142 92.5 235t237.5 132q-103 15 -180.5 93.5t-77.5 180.5q0 120 74 197t188.5 113t232.5 36q110 0 218 -34q57 -17 99.5 -42.5
t81.5 -67.5q74 -76 74 -189q0 -78 -34.5 -138t-95.5 -99t-140 -50q64 -9 128 -38.5t113 -77.5q23 -21 42 -48q11 -16 20.5 -32.5t14.5 -25.5q14 -31 21 -62q3 -16 5 -32t2 -36zM633 1276q-77 0 -142 -26t-104 -79.5t-39 -131.5q0 -75 38.5 -127t105 -79.5t141.5 -27.5
q115 0 195 62.5t80 175.5q0 112 -78.5 172.5t-196.5 60.5zM387 613q-80 -78 -80 -222q0 -93 39.5 -165t113.5 -113t167 -41q96 0 169.5 35.5t117 108t43.5 165.5q0 147 -91 232.5t-239 85.5q-30 0 -66 -6l-32 -7q-18 -3 -33 -10q-59 -21 -109 -63z" />
    <glyph glyph-name="nine" unicode="9" horiz-adv-x="1311" 
d="M275 295q0 -63 29.5 -114t82.5 -82q53 -27 121 -27q97 0 188.5 48t156.5 129t91 178l13 60l7 40l5 53l2 59q-71 -79 -185 -125q-24 -9 -52 -17t-56 -14t-58 -9t-59 -3q-91 0 -181 30q-45 16 -82 36t-71 50q-62 56 -102.5 139t-40.5 179q0 140 71.5 246.5t195 164.5
t264.5 58q189 0 317.5 -90.5t190 -248t61.5 -340.5q0 -162 -49 -296t-139 -227t-222 -147q-66 -26 -138 -39t-157 -13q-172 0 -342 64l123 320l21 -4zM606 570q97 0 177.5 44.5t128 124.5t47.5 175q0 93 -42 177t-121 134.5t-177 50.5q-99 0 -171 -47t-115 -131
q-20 -43 -30 -86q-4 -19 -7 -43.5t-3 -48.5q0 -95 36 -175t108.5 -127.5t168.5 -47.5z" />
    <glyph glyph-name="colon" unicode=":" horiz-adv-x="656" 
d="M162 123q0 62 40 105t99 43q53 0 91 -43t38 -99q0 -53 -39 -101.5t-96 -48.5q-54 0 -93.5 44t-39.5 100zM162 729q0 62 40 105t99 43q37 0 66 -20q30 -18 46 -52q17 -32 17 -70q0 -55 -39.5 -102t-95.5 -47q-57 0 -95 44t-38 99z" />
    <glyph glyph-name="semicolon" unicode=";" horiz-adv-x="656" 
d="M264 -174h-170q33 24 76 118l74 159q37 86 37 116q0 18 -4 23h221zM262 731q0 59 39 103q20 21 44.5 32t56.5 11q35 0 65 -20q28 -16 46 -50.5t18 -71.5q0 -55 -39.5 -102t-98.5 -47q-54 0 -92.5 45.5t-38.5 99.5z" />
    <glyph glyph-name="less" unicode="&#x3c;" horiz-adv-x="1229" 
d="M135 533l957 440v-119l-823 -377l823 -372v-118l-957 439v107z" />
    <glyph glyph-name="equal" unicode="=" horiz-adv-x="1229" 
d="M1092 678v-115h-957v115h957zM1092 396v-115h-957v115h957z" />
    <glyph glyph-name="greater" unicode="&#x3e;" horiz-adv-x="1229" 
d="M135 -13v118l824 372l-824 377v119l957 -440v-107z" />
    <glyph glyph-name="question" unicode="?" horiz-adv-x="1065" 
d="M654 707l-30 -16q-18 -10 -23 -13t-22 -15l-52 -36q-41 -32 -41 -88q0 -48 35 -74q16 -11 40 -22l22 -5l23 -2v-18h-16q-84 0 -126 -14q-23 -6 -50.5 -19.5t-54.5 -36.5q-58 70 -58 136q0 62 31 102q26 36 94 92l137 115q95 78 145 140.5t50 148.5q0 67 -30.5 111.5
t-87.5 69.5t-118 25q-89 0 -175 -42.5t-139 -118.5q-25 -39 -39 -81q-13 -46 -13 -91l1 -30q0 -12 7 -36h-18l-86 393l34 -8q31 0 109 31l75 26l80 24q82 19 189 19q106 0 207.5 -33.5t170.5 -106t69 -179.5q0 -162 -216 -279zM318 125q0 58 39 102t100 44q54 0 91.5 -43
t37.5 -99q0 -57 -40 -103.5t-97 -46.5q-54 0 -92.5 45.5t-38.5 100.5z" />
    <glyph glyph-name="at" unicode="@" horiz-adv-x="1598" 
d="M1442 369q-44 -118 -139.5 -207.5t-221 -139t-253.5 -49.5q-189 0 -348.5 93t-252 257t-92.5 353q0 140 53 265.5t147 224.5q90 93 217 150.5t269 57.5q130 0 245.5 -42t202.5 -117t139 -186t52 -242q0 -197 -122 -344q-59 -77 -152 -131q-45 -24 -90 -39
q-50 -13 -92 -13q-52 0 -100 28t-56 81q-45 -48 -105.5 -78.5t-121.5 -30.5q-71 0 -123 36.5t-78.5 97.5t-26.5 131q0 86 30 186t87.5 185t140.5 136.5t179 51.5q68 0 120 -27.5t70 -85.5l27 88h160l-179 -518q-47 -139 -47 -180q0 -39 45 -39q90 0 197 94q51 45 82.5 105.5
t48 131t16.5 140.5q0 109 -42.5 198.5t-118.5 158t-176.5 106t-200.5 37.5q-164 0 -302 -80.5t-221 -222t-83 -308.5q0 -132 36 -239.5t121.5 -196.5t202.5 -136.5t244 -47.5q104 0 208 35.5t187.5 105t134.5 166.5h82zM969 836q12 44 12 61q0 56 -28.5 95.5t-81.5 39.5
q-89 0 -165 -110.5t-123 -258.5q-22 -74 -33 -131.5t-11 -103.5q0 -51 29 -83q31 -31 81 -31q140 0 224 245z" />
    <glyph glyph-name="A" unicode="A" horiz-adv-x="1352" 
d="M303 275q-32 -94 -32 -146q0 -45 34.5 -77.5t77.5 -32.5v-19h-418v19q35 6 62 21q12 6 22 16l23 28q42 61 92 191l330 870q15 44 23 73.5t8 45.5q0 50 -64 65v19h455v-19q-60 -15 -60 -73q0 -29 19 -80l350 -1008l17 -41l10 -24l17 -32q12 -16 32 -32q2 -1 14 -6
q28 -11 35 -14v-19h-465v19q100 21 100 143q0 70 -40.5 146.5t-116 141.5t-183.5 107q-45 17 -104 30t-119 13zM639 1194l-186 -491q79 0 154.5 -18.5t139.5 -55.5q36 -19 63 -40l29 -23q10 -8 28 -27z" />
    <glyph glyph-name="B" unicode="B" horiz-adv-x="1352" 
d="M824 1348q92 0 157.5 -9.5t119.5 -48.5q26 -19 39 -48t13 -68q0 -58 -27.5 -101t-74.5 -81q-37 -28 -105 -67l-98 -52q118 -36 217.5 -99.5t163.5 -157.5t64 -210q0 -120 -60.5 -214t-175.5 -136q-50 -19 -98 -30l-48 -10l-59 -7q-107 -9 -266 -9h-514v19q61 6 90 41
q13 15 21.5 32.5t14.5 55.5q3 18 5 44t2 62v826q0 56 -6 98.5t-18 77.5q-21 60 -109 73v19h752zM430 811q46 12 98 31l54 18l54 22q107 44 190.5 109t83.5 144q0 75 -76 97q-36 10 -82.5 16t-99.5 6q-169 0 -201 -41q-21 -27 -21 -129v-273zM430 256q0 -70 9 -101.5
t43 -47.5q42 -13 108 -13q217 0 326 68q63 41 103 116.5t40 155.5q0 130 -93 235t-226 163l-310 -117v-459z" />
    <glyph glyph-name="C" unicode="C" horiz-adv-x="1434" 
d="M1256 -21q-21 6 -68 6l-248 -12q-374 0 -598 185q-126 105 -195 259t-69 325q0 137 50 261t152 210t231 124q60 17 132.5 27t147.5 10l225 -18l66 -6q60 0 79 43l95 -387l-17 -6q-35 81 -104 142t-160.5 93.5t-183.5 32.5q-109 0 -189 -30.5t-147 -106.5
q-61 -71 -96 -172.5t-35 -202.5q0 -136 43.5 -256t126.5 -216.5t197 -150t249 -53.5q303 0 453 320l20 -9z" />
    <glyph glyph-name="D" unicode="D" horiz-adv-x="1475" 
d="M561 1348q89 0 169.5 -9.5t145.5 -28.5q136 -36 259 -138q77 -65 135 -153l26 -44l25 -47l37 -96l12 -47l12 -64q3 -20 5 -43t2 -49q0 -74 -13 -138.5t-43 -132.5q-54 -129 -161.5 -218.5t-228.5 -114.5t-306 -25h-563v19q62 9 90.5 42t35.5 76l5 50l2 67v826
q0 61 -5 102t-18 74q-21 60 -110 73v19h487zM432 359q0 -110 9 -158.5t55.5 -77.5t146.5 -29q156 0 271 63t172 180t57 278q0 130 -36 243t-108.5 203.5t-178 141.5t-234.5 51q-71 0 -102 -20q-33 -18 -42.5 -54t-9.5 -98v-43v-680z" />
    <glyph glyph-name="E" unicode="E" horiz-adv-x="1270" 
d="M1151 961l-16 -6q-39 95 -120.5 164t-183.5 102t-212 33q-76 0 -115 -12.5t-56.5 -49.5t-17.5 -110v-117h158h45q86 0 134 22.5t48 100.5l19 6l80 -459l-17 -6q-24 84 -62 134q-36 52 -83.5 72t-111.5 29l-81 2l-80 3h-49v-549q0 -95 10.5 -138t58 -65.5t142.5 -22.5
q420 0 615 396l20 -6l-174 -511q-20 27 -90 27h-940v19q62 9 90.5 42t35.5 76l5 50l2 67v826q0 116 -23 174q-21 62 -110 75v19h876q78 0 111 24z" />
    <glyph glyph-name="F" unicode="F" horiz-adv-x="1147" 
d="M1166 953l-17 -5q-24 74 -91.5 142t-179.5 116t-247 48q-91 0 -128.5 -15.5t-50.5 -50.5q-5 -16 -8 -45t-3 -70v-108h219q58 0 90.5 6t55 34t22.5 79l18 6l80 -459l-16 -4q-27 87 -63.5 135.5t-82.5 72.5q-43 20 -102 27q-29 3 -67.5 5t-90.5 2h-63v-603q0 -80 6 -125
t36 -81q29 -32 93 -43v-17h-494v19q58 6 88 39t37 77l6 48l2 71v826q0 81 -7 120q-6 47 -33.5 81t-92.5 48v19h883h12q18 0 33 0.5t32.5 4.5t30.5 21z" />
    <glyph glyph-name="G" unicode="G" horiz-adv-x="1557" 
d="M940 0q-129 0 -227 12t-191.5 48.5t-178 107t-141.5 159.5t-89 195q-15 53 -23 106.5t-8 111.5q0 201 87 345t244.5 216.5t356.5 72.5l250 -22l35 -6l29 -2q56 0 90 47l71 -379l-20 -4q-57 125 -175.5 192.5t-260.5 67.5q-148 0 -250 -61t-156.5 -175.5t-54.5 -259.5
q0 -130 39.5 -250t118.5 -218t188.5 -154t243.5 -56q96 0 144.5 24.5t63.5 76.5q13 59 13 137v324q0 111 -21.5 173.5t-107.5 75.5v19h459v-19q-69 -12 -87 -48.5t-18 -114.5v-545q0 -87 16.5 -125.5t88.5 -54.5v-17h-529z" />
    <glyph glyph-name="H" unicode="H" horiz-adv-x="1475" 
d="M432 269q0 -86 7 -129q6 -46 35 -79q27 -33 91 -42v-19h-491v19q59 6 90 41q24 28 35 75l6 48l2 71v826q0 61 -5 102t-18 74q-21 60 -110 73v19h491v-19q-60 -6 -89.5 -38.5t-36.5 -76.5l-5 -53l-2 -67v-121h611v107q0 77 -6.5 124.5t-36.5 85.5q-15 18 -37.5 28.5
t-52.5 10.5v19h491v-19q-83 -9 -109 -66q-11 -28 -17.5 -70.5t-6.5 -98.5v-825q0 -85 8 -125q6 -47 34 -82t91 -43v-19h-491v19q84 0 109 62q4 10 9.5 36t7.5 37l5 46l2 54v621h-611v-606z" />
    <glyph glyph-name="I" unicode="I" horiz-adv-x="656" 
d="M441 269q0 -78 6 -123t35.5 -81t91.5 -46v-19h-492v19q60 7 87.5 38t36.5 76.5t9 120.5v826q0 61 -5 102t-18 74q-21 60 -110 73v19h492v-19q-60 -9 -91 -43q-11 -12 -23 -35l-12 -42l-5 -50l-2 -67v-823z" />
    <glyph glyph-name="J" unicode="J" horiz-adv-x="1065" 
d="M666 1080q0 91 -7 132q-6 47 -37 82q-29 35 -89 35v19h491v-19q-60 -10 -87.5 -42.5t-38.5 -77.5l-5 -50l-2 -65v-666q0 -95 -8 -136q-3 -31 -11 -51q-7 -22 -24 -51q-27 -52 -82 -96q-70 -58 -164 -90l-42 -12l-48 -10l-49 -7l-47 -2q-125 0 -249 60t-214 160l207 340
l18 -8q-14 -61 -21 -100.5t-7 -67.5q0 -77 34 -137.5t98.5 -100t135.5 -39.5q117 0 182.5 78.5t65.5 216.5v705z" />
    <glyph glyph-name="K" unicode="K" horiz-adv-x="1352" 
d="M174 1080v14v12l-1 39v17q-3 12 -4 18q0 18 -4 34.5t-14 39.5q-23 62 -110 75v19h492v-19q-43 0 -69.5 -16t-40.5 -49q-23 -58 -23 -170v-250l176 141q108 87 191 166t83 129q0 25 -12.5 34t-42.5 15v19h493v-19q-28 0 -49 -5q-11 -2 -25 -6t-33 -10q-51 -16 -96 -45
q-18 -11 -45 -30t-51 -38l-84 -66l-153 -127q138 -130 250.5 -303t201.5 -392l39 -94l27 -67l14 -29l17 -31q13 -21 40 -44q19 -15 58 -23v-19h-451v19q72 9 72 80q0 69 -48 191q-13 33 -26 62.5t-24 50.5q-22 48 -51 99q-106 182 -277 369l-194 -156v-446q0 -79 6 -126
t34.5 -82t92.5 -42v-19h-492v19q62 9 90.5 42t35.5 76l5 50l2 67v826z" />
    <glyph glyph-name="L" unicode="L" horiz-adv-x="1147" 
d="M430 236q0 -74 39 -108t113 -34q132 0 241.5 48t196.5 138t146 212l18 -8l-176 -511q-24 27 -119 27h-817v19q59 6 90 41q24 28 35 75l6 48l2 71v826q0 61 -5 102t-18 74q-21 60 -110 73v19h491v-19q-40 0 -67.5 -17t-42.5 -49q-23 -58 -23 -169v-858z" />
    <glyph glyph-name="M" unicode="M" horiz-adv-x="1639" 
d="M342 1207v-938q0 -86 7 -129q6 -46 35 -79q27 -33 91 -42v-19h-399v19q58 6 88 39t37 77l6 48l2 71v826q0 61 -5 102t-18 74q-21 60 -110 73v19h518v-19q-35 -8 -35 -39q0 -23 27 -77l235 -430l234 378q53 86 53 125q0 31 -39 43v19h494v-19q-60 -9 -90 -42
q-27 -33 -36 -76l-5 -50l-2 -67v-825q0 -81 7 -122q6 -45 34 -81.5t92 -46.5v-19h-492v19q61 6 88.5 36.5t36.5 76.5l6 50l2 72v953l-448 -728z" />
    <glyph glyph-name="N" unicode="N" horiz-adv-x="1434" 
d="M1098 1080q0 63 -5 104t-18 73q-21 63 -114 72v19h403v-19q-84 -12 -108.5 -69.5t-24.5 -165.5v-825q0 -79 6 -125.5t35 -79.5t92 -45v-19h-403v19q87 9 112 68.5t25 166.5v84q0 141 -8 184q-9 36 -31 58l-29 27l-45 38l-647 539v-915q0 -86 7 -129q6 -46 35 -79
q27 -33 91 -42v-19h-399v19q59 6 90 41q24 28 35 75l6 48l2 71v826q0 61 -5 102t-18 74q-21 60 -110 73v19h539v-19q-43 0 -43 -24q0 -26 63 -80l467 -389v244z" />
    <glyph glyph-name="O" unicode="O" horiz-adv-x="1639" 
d="M312 162q-32 30 -61.5 66.5t-54.5 77.5q-47 78 -75.5 177.5t-28.5 186.5q0 147 54 277t152.5 225.5t232.5 149.5q68 26 136 39q29 5 70 9t76 4q153 0 285 -51t237 -150q99 -96 154 -230t55 -287q0 -146 -57.5 -270.5t-159 -217t-235.5 -144t-277 -51.5q-73 0 -139.5 11
t-134.5 36q-131 48 -229 142zM862 80q102 0 185 42t137.5 113.5t84.5 166t30 192.5q0 180 -72.5 333.5t-196 247t-264.5 93.5q-138 0 -234.5 -72.5t-145 -193t-48.5 -258.5q0 -159 61.5 -312t181.5 -252.5t281 -99.5z" />
    <glyph glyph-name="P" unicode="P" horiz-adv-x="1147" 
d="M828 1348q76 0 132.5 -11t102.5 -36q88 -47 88 -183q0 -98 -74.5 -181t-192 -145t-228.5 -101.5t-222 -69.5v-352q0 -83 6 -127t37 -82q26 -32 91 -41v-19h-492v19q58 6 88 39t37 77l6 48l2 71v826q0 84 -7 123q-6 46 -35 81.5t-91 44.5v19h752zM434 719q488 155 488 367
q0 91 -77 131q-37 17 -92 27q-25 4 -59 7t-67 3q-147 0 -178 -58q-15 -30 -15 -139v-338z" />
    <glyph glyph-name="Q" unicode="Q" horiz-adv-x="1680" 
d="M1606 146q24 -59 24 -115q0 -73 -30.5 -131t-88.5 -90.5t-132 -32.5q-96 0 -173.5 63t-168.5 173q-49 -20 -102.5 -30t-119.5 -10q-146 0 -279 45t-231 140q-104 99 -161.5 235.5t-57.5 282.5q0 194 96 358q23 39 50.5 73.5t62.5 67.5q66 63 150 109q167 90 364 90
q202 0 366.5 -91t262.5 -255.5t98 -363.5q0 -120 -39 -231q-19 -56 -47 -104q-14 -25 -29 -47t-36 -47q-74 -89 -178 -153q125 -129 243 -129q64 0 106 40t42 97q0 15 -9 50zM725 377q116 0 215.5 -52t180.5 -147q90 84 129 183q20 52 30 107q4 25 7 58.5t3 65.5
q0 118 -35 235t-105 215t-173.5 156t-226.5 58q-54 0 -97 -11q-45 -10 -90 -36q-79 -43 -143 -129q-88 -127 -88 -340q0 -260 127 -439q72 39 139 57.5t127 18.5zM869 86q56 0 96 13q-22 29 -46 51l-56 53q-52 44 -120.5 78.5t-129.5 34.5q-25 0 -61.5 -7.5t-80.5 -21.5
q71 -96 175 -149q51 -25 110.5 -38.5t112.5 -13.5z" />
    <glyph glyph-name="R" unicode="R" horiz-adv-x="1311" 
d="M865 1348q159 0 226.5 -50t67.5 -159q0 -111 -81.5 -189.5t-212.5 -148.5q205 -230 358 -610l26 -60q15 -35 26 -51.5t37 -37.5q13 -12 54 -23v-19h-432v19q76 14 76 80q0 45 -36 134q-13 33 -16 40q-7 15 -19 38l-40 74l-211 305l-20 27l-238 -82v-366q0 -84 6 -129
t35.5 -78t91.5 -43v-19h-491v19q62 9 90.5 42t35.5 76l5 50l2 69v824q0 61 -5 102t-18 74q-21 60 -110 73v19h793zM430 731q37 10 101 33l57 20l56 24q116 48 204 122.5t88 161.5q0 99 -67 130.5t-179 31.5q-194 0 -235 -45q-25 -28 -25 -127v-351z" />
    <glyph glyph-name="S" unicode="S" horiz-adv-x="1270" 
d="M1055 959l-16 -4q-27 87 -96 158t-165 113t-192 42h-33q-16 -3 -34 -5t-48 -12q-58 -15 -100.5 -55.5t-42.5 -97.5q0 -63 49 -90q24 -12 65.5 -27.5t96.5 -34.5l287 -86q182 -57 262 -129q110 -104 110 -272q0 -143 -82.5 -253.5t-216 -171.5t-280.5 -61q-60 0 -101 9
l-134 33q-96 24 -136 24q-36 0 -70 -37l-118 512l18 6q37 -122 111.5 -217.5t181.5 -153t233 -57.5q106 0 196 37.5t142 103.5q26 34 39 68.5t13 73.5q0 117 -77 170q-35 24 -92.5 48.5t-132.5 49.5l-272 84q-137 42 -217 112.5t-80 199.5q0 115 70 189t180.5 110t218.5 36
q23 0 45 -1t52.5 -4.5t82.5 -17.5q101 -22 127 -22q40 0 74 37z" />
    <glyph glyph-name="T" unicode="T" horiz-adv-x="1188" 
d="M705 266q0 -82 6 -128t36 -84q30 -35 91 -35v-19h-492v19q85 0 109 57.5t24 177.5v987q-190 0 -305.5 -63.5t-177.5 -214.5l-19 6l101 405q12 -15 38 -22l32 -3l51 -1h786h14h12q41 0 61.5 3t33.5 23l101 -405l-19 -6q-57 144 -175.5 211t-307.5 67v-975z" />
    <glyph glyph-name="U" unicode="U" horiz-adv-x="1393" 
d="M185 1082q0 60 -5 101.5t-18 76.5q-9 29 -39.5 49t-71.5 20l-2 19h494v-19q-61 0 -88.5 -27.5t-38.5 -77.5q-6 -45 -6 -130v-660q0 -173 87 -258.5t245 -85.5q124 0 210 43t127.5 123.5t41.5 186.5v639q0 92 -6.5 138.5t-35.5 77.5t-92 31v19h400v-19q-62 -8 -89.5 -40
t-36.5 -76l-5 -51l-2 -68v-567q0 -207 -68.5 -330.5t-190.5 -174.5q-58 -23 -130.5 -36t-151.5 -13q-225 0 -381 101q-60 36 -91.5 86t-45.5 113l-7 66l-3 79v664z" />
    <glyph glyph-name="V" unicode="V" horiz-adv-x="1352" 
d="M1020 1086q37 117 37 149q0 84 -92 94v19h364v-19q-31 0 -61 -24q-19 -15 -44 -51l-16 -32l-14 -33l-26 -73l-353 -936q-26 -73 -26 -100q0 -50 63 -61v-19h-393v19q63 8 63 65q0 34 -28 117l-316 907q-33 101 -62.5 155t-92.5 66v19h448v-19q-86 -18 -86 -94
q0 -37 39 -151l283 -871z" />
    <glyph glyph-name="W" unicode="W" horiz-adv-x="1843" 
d="M1510 1100q12 57 12 92q0 122 -119 137v19h399v-19q-16 0 -25 -2q-12 0 -31 -9.5t-39 -31.5q-31 -36 -49 -84l-34 -129l-190 -882q-12 -53 -12 -92q0 -70 53 -80v-19h-418v19q47 11 47 67l-3 35l-5 25l-191 852l-180 -820l-16 -94q0 -55 55 -65v-19h-422v19q60 12 60 67
q0 16 -9 58l-219 981l-13 66l-7 32q-3 16 -14 37.5t-35 45.5q-20 15 -64 23v19h443v-19q-101 -9 -101 -110q0 -27 21 -131l202 -922l209 959q15 69 15 92q0 96 -103 112v19h467v-19q-55 0 -83.5 -25.5t-28.5 -72.5q0 -42 16 -102l213 -963z" />
    <glyph glyph-name="X" unicode="X" horiz-adv-x="1393" 
d="M1204 174q51 -78 85.5 -110.5t101.5 -44.5v-19h-537v19q99 11 99 84q0 49 -50 125l-264 395l-192 -287q-48 -72 -88 -144q-29 -58 -29 -98q0 -63 90 -75v-19h-418v19q65 9 102 51q17 19 46.5 56.5t64.5 86.5l359 514l-230 346q-74 111 -133 178t-137 78v19h522v-19
q-88 -14 -88 -71q0 -41 60 -133l137 -205l135 192q80 113 80 164q0 44 -66 53v19h398v-19q-9 0 -19 -0.5t-28 -7.5l-41 -18q-35 -17 -71 -55l-28 -31l-22 -27l-66 -92l-199 -283z" />
    <glyph glyph-name="Y" unicode="Y" horiz-adv-x="1229" 
d="M715 269q0 -89 6.5 -133.5t36.5 -79.5q14 -17 35.5 -27t54.5 -10v-19h-491v19q61 6 88 37.5t38 78.5l5 51l2 68v369l-328 516l-38 59q-13 24 -17 27l-27 36l-26 26l-14 12l-14 9l-15 8l-15 7q-15 6 -35 6v19h529v-19q-48 0 -74.5 -20.5t-26.5 -58.5q0 -68 82 -195
l191 -305l188 309q92 152 92 205q0 65 -90 65v19h398v-19q-23 0 -43.5 -7.5t-40.5 -22.5q-28 -19 -56 -54l-65 -92l-330 -530v-354z" />
    <glyph glyph-name="Z" unicode="Z" horiz-adv-x="1188" 
d="M979 -27q-18 27 -102 27h-871l793 1245l-154 9l-21 1l-20 1q-119 0 -215.5 -33.5t-168.5 -106.5t-115 -186l-19 4l105 440q12 -15 32.5 -20t41 -5.5t40.5 -0.5h820l-799 -1245l153 -9l22 -1l21 -1q205 0 374.5 98.5t260.5 284.5l19 -6z" />
    <glyph glyph-name="bracketleft" unicode="[" horiz-adv-x="615" 
d="M289 13l174 -181q24 -28 66 -53h-222l5 16q0 18 -39 63l-97 101q-42 42 -63 51v7q18 23 18 94v958q0 68 -18 95v6q27 14 63 51l113 119l10 15l9 16l4 14l-5 16h222q-15 -6 -39 -27l-24 -22l-30 -31l-147 -151v-1157z" />
    <glyph glyph-name="backslash" unicode="\" horiz-adv-x="1106" 
d="M154 1348h129l563 -1348h-127z" />
    <glyph glyph-name="bracketright" unicode="]" horiz-adv-x="615" 
d="M326 1170l-174 180q-27 33 -66 51h221l-4 -14q0 -14 39 -64l97 -100q36 -39 63 -45v-6q-18 -26 -18 -103v-958q0 -65 18 -94v-7q-18 -6 -63 -51l-113 -119l-12 -18q-4 -7 -6.5 -12.5t-4.5 -14.5l4 -16h-221q28 12 92 79l148 152v1160z" />
    <glyph glyph-name="asciicircum" unicode="^" horiz-adv-x="1229" 
d="M662 1348l325 -709h-118l-263 572l-258 -572h-114l323 709h105z" />
    <glyph glyph-name="underscore" unicode="_" horiz-adv-x="1024" 
d="M1024 -135v-160h-1024v160h1024z" />
    <glyph glyph-name="grave" unicode="`" horiz-adv-x="656" 
d="M471 1137l-209 96q-33 14 -53.5 25.5t-39.5 27.5q-34 28 -34 74q0 42 32 74q13 13 32.5 22t40.5 9q34 0 61 -23q24 -19 58 -63l147 -199z" />
    <glyph glyph-name="a" unicode="a" horiz-adv-x="1147" 
d="M873 0q-32 42 -51 91t-19 94q-34 -65 -103 -116q-30 -21 -66 -39q-10 -4 -36 -14q-19 -7 -42 -15l-79 -16q-41 -6 -81 -6q-141 0 -232.5 65t-91.5 175q0 109 71.5 188.5t177.5 127.5q49 22 114 44t141 42l211 51v39q0 79 -20 120q-18 42 -64 63.5t-123 21.5
q-98 0 -180 -30.5t-149 -94.5q-63 -60 -107 -154l32 336q38 -27 62 -27l25 4l44 13q105 35 179 51l81 12l95 4q133 0 206.5 -31.5t106.5 -107t33 -205.5v-385q0 -121 24 -191t121 -91v-19h-280zM787 588q-180 -39 -331 -120.5t-151 -221.5q0 -69 49 -110.5t117 -41.5
q171 0 243.5 124.5t72.5 318.5v51z" />
    <glyph glyph-name="b" unicode="b" horiz-adv-x="1311" 
d="M430 1401v-379l140 8l24 1l23 1q173 0 309.5 -70.5t214.5 -200t78 -286.5q0 -153 -64 -258t-199.5 -161t-326.5 -56h-530v19q77 9 100 69q10 29 16 71t6 93v844q0 75 -6 123t-34 79t-82 31v19zM430 252q0 -59 10 -87.5t51 -48.5l50 -13l70 -4q180 0 283.5 108t103.5 283
q0 125 -57.5 225.5t-162.5 158.5t-229 58l-119 -8v-672z" />
    <glyph glyph-name="c" unicode="c" horiz-adv-x="1106" 
d="M973 -15q-25 11 -43 11l-37 -2l-59 -7l-135 -8q-62 0 -121 9q-34 5 -58 11t-57 18q-57 20 -104 46.5t-91 63.5q-83 71 -133.5 179t-50.5 233q0 138 60 250t172 176.5t247 64.5l146 -10l131 -12q51 0 86 22l59 -315l-12 -6q-51 100 -138 161.5t-198 61.5
q-102 0 -177.5 -57.5t-115 -151.5t-39.5 -198q0 -174 105 -297q54 -66 135 -108t162 -42q109 0 207.5 56.5t148.5 154.5l14 -8z" />
    <glyph glyph-name="d" unicode="d" horiz-adv-x="1270" 
d="M1092 1401v-1149q0 -70 6 -117t35 -81.5t82 -34.5v-19h-512q-277 0 -414 92q-96 66 -150.5 179t-54.5 233q0 172 72.5 289t203.5 177t302 60l221 -12v80q0 106 -21.5 168.5t-101.5 62.5v19zM883 705q0 81 -11 122q-9 45 -51.5 75t-134.5 30q-119 0 -203.5 -56.5
t-131 -156.5t-46.5 -219q0 -199 133 -306.5t336 -107.5q46 0 109 15v604z" />
    <glyph glyph-name="e" unicode="e" horiz-adv-x="1188" 
d="M316 461q17 -105 76 -191.5t153.5 -139t196.5 -52.5q58 0 126 27.5t121 73t109 155.5l18 -8l-106 -339q-21 15 -47 15h-14l-25 -4l-215 -19q-102 0 -210 30t-203.5 96t-154.5 168.5t-59 230.5q0 148 71 268t195.5 189t272.5 69q170 0 300 -93t177 -259zM858 705
q-30 93 -97 160t-159 67q-100 0 -164.5 -51.5t-100.5 -142.5q-14 -40 -24 -89q-4 -22 -7 -50t-3 -52z" />
    <glyph glyph-name="f" unicode="f" horiz-adv-x="697" 
d="M183 903h-136v19q80 9 110 49q12 16 22 50.5t10 78.5q0 37 6 72t18 72q20 59 70 108q57 56 138 84q42 15 80.5 22t82.5 7q91 0 205 -37l-68 -215l-14 2q0 67 -38.5 108t-103.5 41q-112 0 -144 -83.5t-32 -221.5v-68h117q43 0 73 6t54 27l-55 -139q-9 18 -72 18h-115v-651
q0 -81 6 -125.5t34 -76t83 -31.5v-19h-454v19q39 0 63.5 15.5t37.5 49.5q22 69 22 168v651z" />
    <glyph glyph-name="g" unicode="g" horiz-adv-x="1106" 
d="M1082 1010v-19q-37 0 -60.5 -11t-38.5 -34q-24 -41 -24 -116v-72v-539q0 -60 9 -87t49.5 -67.5t66.5 -79.5q22 -38 22 -94q0 -104 -75.5 -181.5t-206.5 -118t-269 -40.5q-89 0 -158 11t-137 35q-138 45 -239 147l229 231l10 -12q-28 -48 -28 -90q0 -65 39 -117
t114.5 -82.5t171.5 -30.5q93 0 169 27t119.5 76.5t43.5 111.5q0 89 -58 115.5t-157 26.5q-144 0 -243.5 18t-192.5 83q-105 72 -159 189t-54 249l3 74q2 17 4.5 33.5t6.5 33.5q12 61 45 118q57 105 170 158.5t262 53.5h566zM750 762q0 100 -29 133q-42 33 -135 33
q-108 0 -183.5 -51t-116 -142.5t-40.5 -199.5q0 -134 55.5 -230.5t151 -151t201.5 -54.5l96 6v657z" />
    <glyph glyph-name="h" unicode="h" horiz-adv-x="1270" 
d="M400 1401v-602q234 231 440 231q124 0 180.5 -79t56.5 -242v-457q0 -110 22 -169q12 -30 38 -49q26 -17 67 -17v-17h-454v17q74 9 96.5 70.5t22.5 166.5v365q0 84 -8 132q-6 55 -40 93.5t-104 38.5q-60 0 -129 -38t-117 -97q-19 -25 -38 -59q-14 -29 -21 -62
q-12 -60 -12 -160v-213q0 -114 20.5 -170.5t99.5 -66.5v-17h-452v19q81 9 102 69t21 166v842q0 112 -21.5 172.5t-101.5 60.5v19z" />
    <glyph glyph-name="i" unicode="i" horiz-adv-x="574" 
d="M391 1010v-758q0 -74 6 -118.5t34 -79.5q30 -35 83 -35v-19h-454v19q40 0 64 17.5t37 48.5q10 32 16 74.5t6 92.5v479q0 108 -21.5 166t-101.5 68v18zM148 1288q0 65 37.5 108.5t101.5 43.5q56 0 96.5 -43.5t40.5 -101.5q0 -64 -38 -109t-97 -45q-58 0 -99.5 42.5
t-41.5 104.5z" />
    <glyph glyph-name="j" unicode="j" horiz-adv-x="656" 
d="M477 1010v-1020v-48q0 -92 -11 -150.5t-50 -105.5q-47 -58 -138 -91q-40 -13 -89 -22l-45 -5l-50 -2q-186 0 -356 102l196 250l13 -6q-27 -54 -27 -101q0 -65 50.5 -108t115.5 -43q82 0 120 39.5t52 112.5l8 78l3 104v737q0 108 -21.5 166t-101.5 68v18zM232 1301
q0 67 38 109t101 42q57 0 97 -43t40 -102q0 -60 -38 -107t-95 -47q-60 0 -101.5 42.5t-41.5 105.5z" />
    <glyph glyph-name="k" unicode="k" horiz-adv-x="1188" 
d="M199 1096q0 112 -21.5 172.5t-101.5 60.5v19l332 53v-833l270 260q76 71 76 118q0 36 -57 45v19h417v-19q-48 -6 -98 -28q-24 -10 -46 -22.5t-46.5 -31t-38.5 -29.5t-43 -36l-82 -72l-51 -45q118 -109 212 -253q88 -135 191 -334l26 -49l22 -33q9 -13 27 -24
q18 -9 48 -15v-19h-436v19q70 12 70 65q0 55 -53.5 161.5t-129.5 210t-131 146.5l-147 -131v-217q0 -80 6 -126.5t33 -79.5q27 -29 84 -29v-19h-455v19q40 0 64 17.5t37 48.5q22 66 22 167v844z" />
    <glyph glyph-name="l" unicode="l" horiz-adv-x="574" 
d="M391 1401v-1149q0 -74 6 -118.5t34 -79.5q30 -35 83 -35v-19h-454v19q77 9 101 69q8 26 16 71q6 42 6 93v844q0 113 -22 170q-9 28 -35 45.5t-66 17.5v19z" />
    <glyph glyph-name="m" unicode="m" horiz-adv-x="1925" 
d="M178 731q0 105 -21 165t-101 69v18l278 27q24 -43 38.5 -99t14.5 -120q96 99 212.5 169t228.5 70q104 0 164 -59.5t75 -169.5q250 229 443 229q117 0 175 -85.5t58 -233.5v-459q0 -60 5 -100t18 -73q23 -60 104 -60v-19h-450v19q71 9 94 69q9 30 15 69q5 43 5 95v375
q0 121 -30 188.5t-130 67.5q-65 0 -133 -42t-110 -103q-30 -43 -46 -98l-9 -42l-8 -57l-3 -123v-166q0 -74 6 -117t36 -81q30 -35 87 -35v-19h-454v19q37 0 60.5 17t35.5 48q9 31 15 71q4 42 4.5 63t0.5 34v375q0 118 -30 187t-125 69q-31 0 -58 -7.5t-60 -24.5
q-59 -29 -104 -79q-51 -56 -71.5 -129t-20.5 -159v-232q0 -104 21 -167q9 -28 36 -49q25 -17 64 -17v-19h-452v19q40 0 64 17.5t37 48.5q21 60 21 167v479z" />
    <glyph glyph-name="n" unicode="n" horiz-adv-x="1270" 
d="M191 733q0 77 -7 116q-6 44 -30 77q-24 30 -80 39v18l274 27q20 -40 36 -95.5t16 -119.5q226 235 415 235q148 0 205 -87.5t57 -254.5v-434q0 -70 6 -117.5t35 -82.5t82 -35v-19h-454v19q40 0 64 17t38 49q21 60 21 169v355q0 135 -33 204.5t-127 69.5
q-67 0 -134.5 -42.5t-112.5 -106.5q-39 -59 -52 -119l-7 -68l-3 -92v-201q0 -112 20.5 -168.5t99.5 -68.5v-17h-452v19q81 8 102 67t21 166v481z" />
    <glyph glyph-name="o" unicode="o" horiz-adv-x="1270" 
d="M74 498q0 161 74.5 281t207 185.5t287.5 65.5q158 0 283 -60.5t196.5 -176.5t71.5 -275q0 -163 -72.5 -282.5t-207.5 -188t-291 -68.5q-151 0 -278.5 63t-199 181.5t-71.5 274.5zM307 539q0 -57 8 -109t26 -109q35 -106 110 -174.5t190 -68.5q95 0 168.5 57t112.5 152.5
t39 202.5q0 110 -33.5 210.5t-108 166t-188.5 65.5q-162 0 -243 -111.5t-81 -281.5z" />
    <glyph glyph-name="p" unicode="p" horiz-adv-x="1270" 
d="M609 1010q97 0 169.5 -13.5t143.5 -45.5q132 -57 205 -175.5t73 -283.5q0 -163 -72 -271.5t-205.5 -164.5t-299.5 -56l-223 8v-186q0 -116 20 -170q11 -31 35 -48.5t65 -17.5v-18h-454v18q39 0 63.5 15t38.5 50q21 59 21 169v938q0 106 -21 169q-9 28 -35.5 46t-66.5 18
v19h543zM398 924v-635q0 -74 12 -116.5t58.5 -64.5t135.5 -22q115 0 199.5 55t130 151.5t45.5 211.5q0 129 -54.5 223t-157 145.5t-228.5 51.5h-141z" />
    <glyph glyph-name="q" unicode="q" horiz-adv-x="1270" 
d="M682 0q-137 0 -248.5 41t-189 112.5t-121 168.5t-43.5 205q0 224 162 368q75 65 182 92l47 8l77 10q50 5 114 5h536v-19q-76 0 -101 -61q-8 -26 -16 -73q-6 -44 -6 -99v-936q0 -84 7 -120q6 -45 34 -79q16 -19 37 -28t45 -9v-18h-454v18q39 0 63.5 15t38.5 50
q21 60 21 171v186zM867 723q0 67 -6 106q-3 34 -23 55q-18 21 -58 30l-49 7l-67 3q-108 0 -189 -51t-127.5 -142t-46.5 -196q0 -125 55.5 -224.5t157 -156.5t234.5 -57l119 8v618z" />
    <glyph glyph-name="r" unicode="r" horiz-adv-x="778" 
d="M178 731q0 105 -21 165t-101 69v18l282 27q20 -44 33.5 -106t13.5 -119q42 99 143 172t205 73l70 -12l-45 -205q-14 10 -29 17.5t-34 14.5q-33 11 -64 11q-135 0 -189.5 -111.5t-54.5 -287.5v-164q0 -98 6 -150.5t32.5 -82t84.5 -41.5v-19h-454v19q39 0 63 17.5t37 49.5
q22 66 22 166v479z" />
    <glyph glyph-name="s" unicode="s" horiz-adv-x="1024" 
d="M877 682l-15 -2q-18 115 -124 183.5t-230 68.5q-72 0 -135.5 -30t-63.5 -99q0 -65 65 -98q56 -24 238 -79q172 -48 259.5 -112.5t87.5 -185.5q0 -111 -64 -189t-170 -120q-55 -20 -104 -30q-22 -4 -51 -7t-54 -3q-82 0 -151 13l-30 5l-42 9l-75 17q-74 18 -87 18
q-26 0 -51 -28l-16 401l16 4q6 -53 22 -95l19 -41q10 -20 28 -42q52 -71 143.5 -116.5t191.5 -45.5q58 0 120.5 21t104 65.5t41.5 104.5q0 75 -72 108q-36 17 -93 36q-23 8 -63 21q-52 17 -83 26q-169 50 -253.5 113.5t-84.5 186.5q0 93 56 152.5t145.5 88.5t181.5 29
q71 0 125.5 -8.5t124.5 -24.5l42 -9l37 -5q28 0 49 17z" />
    <glyph glyph-name="t" unicode="t" horiz-adv-x="697" 
d="M137 903h-135v19q83 21 127.5 92t44.5 164q0 30 -12 104l184 82v-373h164h11q13 0 28.5 0.5t34 4.5t23.5 7q16 6 34 23l-57 -145q-22 22 -88 22h-150v-598q0 -107 30 -156.5t116 -49.5q113 0 194 94l13 -6l-70 -168q-60 -20 -123 -30q-28 -4 -63.5 -7t-69.5 -3
q-92 0 -143.5 37.5t-72.5 105.5l-15 72q-5 42 -5 85v624z" />
    <glyph glyph-name="u" unicode="u" horiz-adv-x="1270" 
d="M918 0q-18 46 -30 97l-8 53l-3 59q-110 -100 -220 -165t-218 -65q-246 0 -246 306v446q0 106 -21 169q-9 28 -36 46.5t-66 18.5v18l332 27v-617q0 -144 30 -207t119 -63q72 0 144 42t113.5 104.5t55 138t13.5 174.5v149q0 111 -21.5 172.5t-101.5 61.5v18l332 27v-762
q0 -105 22.5 -167t104.5 -62v-19h-295z" />
    <glyph glyph-name="v" unicode="v" horiz-adv-x="1106" 
d="M838 846q22 66 22 86q0 59 -69 59v19h301v-19q-28 0 -46.5 -10.5t-35.5 -34.5q-19 -33 -64 -135l-260 -643q-28 -68 -28 -100q0 -34 45 -49v-19h-340v19q45 5 45 43q0 26 -23 84l-248 684q-14 41 -26.5 71.5t-23.5 48.5q-21 41 -72 41v19h405v-19q-76 -8 -76 -73
q0 -30 27 -117l211 -635z" />
    <glyph glyph-name="w" unicode="w" horiz-adv-x="1557" 
d="M1286 791q29 107 29 131q0 69 -72 69v19h316v-19q-37 0 -63 -20l-22 -20l-19 -27q-16 -28 -27 -65l-23 -70l-207 -641q-7 -26 -12 -47.5t-8 -40.5q0 -41 43 -41v-19h-311v19q32 0 32 32q0 23 -18 76l-164 453l-162 -465q-14 -46 -16 -62q0 -27 35 -34v-19h-303v19
q39 8 39 45q0 22 -19 86l-199 665q-26 94 -50 133q-23 43 -81 43v19h404v-19q-34 0 -51 -19.5t-17 -57.5q0 -41 19 -105l166 -653l274 838h16l291 -805z" />
    <glyph glyph-name="x" unicode="x" horiz-adv-x="1147" 
d="M979 160l43 -60q20 -29 51 -55q24 -20 58 -26v-19h-424v19q63 8 63 47q0 31 -78 151l-153 232l-148 -185q-122 -157 -122 -200q0 -36 61 -45v-19h-315v19q48 9 78 39t81 96l308 377l-173 247l-41 62l-27 39l-26 35q-19 22 -55 53q-17 13 -31.5 18.5t-29.5 5.5v19h440v-19
q-34 0 -51 -14q-17 -12 -17 -37q0 -41 64 -135l78 -115l92 121q78 104 78 137q0 36 -62 43v19h342v-19q-20 0 -33.5 -4.5t-22.5 -8.5q-2 -1 -19 -11q-33 -18 -66.5 -51.5t-65.5 -71.5l-55 -68l-137 -163z" />
    <glyph glyph-name="y" unicode="y" horiz-adv-x="1024" 
d="M766 768l25 68l18 52q6 23 6 40q0 56 -71 63v19h313v-19q-33 -3 -56 -18.5t-42 -43.5l-15 -26l-15 -32l-26 -64l-348 -912q-39 -107 -79.5 -173t-112.5 -115q-34 -22 -77.5 -34t-94.5 -12q-109 0 -201 74l127 277l16 -11l-6 -25l-2 -30q0 -58 32 -99.5t87 -41.5
q58 0 103 38t67 99q10 29 16 59t6 60q0 51 -21 129q-11 42 -26 84.5t-39 98.5l-219 546q-16 43 -30 73t-32 54q-30 45 -79 45v19h412v-19q-68 -8 -68 -63q0 -27 29 -107l211 -565z" />
    <glyph glyph-name="z" unicode="z" horiz-adv-x="1024" 
d="M363 105l192 -13q146 0 261 54t161 182l17 -4l-123 -345q-44 21 -164 21h-656l629 914l-119 4q-319 0 -401 -193l-16 4l67 312q28 -31 115 -31h665z" />
    <glyph glyph-name="braceleft" unicode="{" horiz-adv-x="574" 
d="M344 -4q0 -92 29.5 -138.5t116.5 -78.5q-85 0 -117 8q-41 6 -84 38.5t-57.5 88t-14.5 117.5v354q0 50 -6 80t-33 66q-41 50 -110 63q91 24 120 68t29 141v313q0 106 21 166t82 90q29 15 71 22q20 3 44.5 5t54.5 2q-81 -24 -113.5 -76t-32.5 -137v-334q0 -114 -30.5 -175
t-133.5 -85q95 -21 129.5 -79t34.5 -162v-357z" />
    <glyph glyph-name="bar" unicode="|" horiz-adv-x="1229" 
d="M555 1348h117v-1348h-117v1348z" />
    <glyph glyph-name="braceright" unicode="}" horiz-adv-x="574" 
d="M213 1188q0 91 -32 139q-28 47 -113 74q112 0 169 -28t81 -90q7 -21 16 -73q6 -45 6 -94v-313q0 -95 27.5 -138t122.5 -71q-69 -12 -111 -63q-9 -12 -17.5 -29t-14.5 -34l-5 -36l-2 -47v-354l-3 -65q-3 -31 -10 -56q-14 -50 -56 -82l-42 -25q-15 -8 -56 -17l-43 -5
l-62 -2q85 29 114 77q14 22 22.5 58t8.5 82v357q0 104 32.5 160t131.5 81q-95 21 -129.5 85t-34.5 175v334z" />
    <glyph glyph-name="asciitilde" unicode="~" horiz-adv-x="1229" 
d="M1127 559q-58 -85 -126 -143q-58 -49 -149 -49q-61 0 -113 16l-30 9l-28 11l-70 28l-70 30l-55 21q-54 16 -97 16q-66 0 -112 -40q-10 -8 -22.5 -21t-22 -25t-22 -30t-23.5 -36l-86 58q63 101 129 153q33 26 73.5 39t89.5 13q47 0 107 -18l61 -21q40 -13 47 -16
q24 -11 37 -16l129 -48q49 -13 76 -13q60 0 101 34.5t88 103.5z" />
    <glyph glyph-name="nonbreakingspace" unicode="&#xa0;" horiz-adv-x="250" 
 />
    <glyph glyph-name="sterling" unicode="&#xa3;" horiz-adv-x="0" 
 />
    <glyph glyph-name="currency" unicode="&#xa4;" horiz-adv-x="1311" 
d="M262 400q-42 64 -66 130q-10 32 -16 68t-6 70q0 78 21 146q18 58 67 128l-77 80l94 96l78 -77q123 90 282 90q129 0 266 -90l80 77l97 -96l-80 -80q88 -130 88 -282q0 -135 -88 -260l80 -80l-97 -94l-80 77q-122 -92 -282 -92q-132 0 -266 92l-78 -77l-94 94zM365 668
q0 -67 36.5 -129t98.5 -99.5t129 -37.5q109 0 189.5 78t80.5 192q0 69 -33.5 129.5t-93.5 99.5t-131 39q-75 0 -139.5 -35.5t-100.5 -99t-36 -137.5z" />
    <glyph glyph-name="yen" unicode="&#xa5;" 
 />
    <glyph glyph-name="brokenbar" unicode="&#xa6;" horiz-adv-x="1229" 
d="M555 1348h117v-449h-117v449zM555 449h117v-449h-117v449z" />
    <glyph glyph-name="section" unicode="&#xa7;" horiz-adv-x="1311" 
d="M1041 1030l-13 -2q-39 114 -144.5 186t-229.5 72q-82 0 -147.5 -33.5t-65.5 -107.5q0 -52 44 -75l54 -24l76 -26l237 -72q152 -44 217 -106q90 -84 90 -225q0 -100 -48 -177.5t-103 -111.5q117 -96 117 -248q0 -86 -38.5 -161.5t-108 -129t-159.5 -83.5q-45 -14 -87 -21
q-22 -3 -43 -5t-44 -2q-44 0 -79 7l-39 8q-7 1 -19 4t-34 10l-84 21q-26 6 -52 6t-57 -31l-98 422l16 6q48 -156 162 -255t272 -99q91 0 163.5 30.5t115.5 86t43 116.5q0 98 -63.5 141.5t-184.5 80.5l-225 69q-113 36 -179.5 93t-66.5 165q0 87 62.5 165t217.5 114v4
q-74 20 -125.5 49t-85.5 80.5t-34 124.5q0 97 57.5 159t147.5 90q47 15 89.5 22t92.5 7q69 0 147 -18t107 -18q34 0 61 30zM897 389q90 45 90 176q0 76 -51.5 117.5t-157.5 75.5l-110 37q-78 -7 -136.5 -37.5t-92 -73t-33.5 -75.5q0 -51 43 -76q40 -21 131 -49z" />
    <glyph glyph-name="dieresis" unicode="&#xa8;" horiz-adv-x="1270" 
d="M1151 961l-16 -6q-39 95 -120.5 164t-183.5 102t-212 33q-76 0 -115 -12.5t-56.5 -49.5t-17.5 -110v-117h158h45q86 0 134 22.5t48 100.5l19 6l80 -459l-17 -6q-24 84 -62 134q-36 52 -83.5 72t-111.5 29l-81 2l-80 3h-49v-549q0 -95 10.5 -138t58 -65.5t142.5 -22.5
q420 0 615 396l20 -6l-174 -511q-20 27 -90 27h-940v19q62 9 90.5 42t35.5 76l5 50l2 67v826q0 116 -23 174q-21 62 -110 75v19h876q78 0 111 24zM682 1620q0 47 29.5 83t75.5 36q49 0 79.5 -33.5t30.5 -87.5q0 -46 -31 -80.5t-73 -34.5q-45 0 -79 35q-32 35 -32 82z
M381 1620q0 47 29.5 83t75.5 36q49 0 79.5 -33.5t30.5 -87.5q0 -46 -31 -80.5t-73 -34.5q-45 0 -79 35q-32 37 -32 82z" />
    <glyph glyph-name="copyright" unicode="&#xa9;" horiz-adv-x="1557" 
d="M78 670q0 196 89 358q41 75 104.5 141t143.5 113q160 92 359 92q155 0 282.5 -51t223 -144t147.5 -225t52 -282q0 -152 -51 -280t-144.5 -221.5t-227.5 -145.5t-286 -52q-37 0 -73 3t-73 10q-69 12 -134 40q-123 49 -217.5 143.5t-144.5 225.5t-50 275zM168 676
q0 -133 42.5 -246.5t124.5 -196.5t198 -130t252 -47q127 0 237.5 42t192.5 125t128 199t46 254q0 122 -41 232t-122.5 197t-197.5 137.5t-252 50.5q-71 0 -136.5 -12t-122.5 -38q-112 -47 -189.5 -132.5t-119.5 -201.5q-20 -58 -30 -115q-4 -24 -7 -56.5t-3 -61.5zM1092 819
h-64q0 46 -14 82.5t-43 68.5q-54 56 -150 56q-82 0 -141 -45.5t-96 -124.5q-33 -75 -33 -161q0 -91 33.5 -171.5t99.5 -133.5q33 -26 70 -39t82 -13q146 0 229 144l49 -17q-36 -95 -128.5 -144.5t-202.5 -49.5q-114 0 -201.5 50.5t-138 145.5t-50.5 205q0 121 50 213.5
t146.5 146.5t215.5 54q131 0 287 -56v-211z" />
    <glyph glyph-name="ordfeminine" unicode="&#xaa;" 
 />
    <glyph glyph-name="guillemotleft" unicode="&#xab;" horiz-adv-x="738" 
d="M553 778l56 -26l-84 -246l84 -252l-56 -24l-147 276zM275 778l55 -26l-84 -246l84 -252l-55 -24l-148 276z" />
    <glyph glyph-name="logicalnot" unicode="&#xac;" horiz-adv-x="1229" 
d="M977 563h-842v115h957v-581h-115v466z" />
    <glyph glyph-name="minus" unicode="&#xad;" horiz-adv-x="901" 
d="M781 1344v-121h-646v121h646z" />
    <glyph glyph-name="registered" unicode="&#xae;" horiz-adv-x="1557" 
d="M78 670q0 188 89.5 350t250 258t354.5 96q189 0 351 -93t259 -253q47 -79 72 -168.5t25 -181.5q0 -193 -94 -355t-258 -256t-355 -94q-145 0 -274.5 55.5t-221 151t-145 224t-53.5 266.5zM168 672q0 -167 81 -309t223 -224.5t311 -82.5q163 0 301.5 80.5t221.5 224
t83 309.5q0 167 -83.5 311.5t-226 228t-303.5 83.5q-69 0 -128.5 -11t-117.5 -36q-111 -45 -191 -129t-125.5 -200t-45.5 -245zM768 1075q165 0 232 -49t67 -145q0 -80 -60 -140q-30 -28 -67.5 -45.5t-77.5 -17.5q57 -12 93 -63q32 -48 71 -133l23 -48l23 -43q11 -20 22 -34
q20 -23 59 -23v-37h-43h-43q-54 0 -86 21q-14 11 -25 29l-24 43l-18 41l-15 38q-6 16 -14 34.5t-16 33.5q-12 31 -20 40q-15 25 -59 45q-42 21 -136 21v-225q0 -44 3 -60t25 -22l60 -2v-37h-303v37h36q30 0 41 11l8 17q3 11 3 29v598q-3 27 -14 33.5t-42 14.5l-32 2v36h329z
M703 717q107 0 168 30t61 130q0 162 -168 162q-61 0 -85.5 -14t-24.5 -66v-242h49z" />
    <glyph glyph-name="macron" unicode="&#xaf;" horiz-adv-x="0" 
 />
    <glyph glyph-name="degree" unicode="&#xb0;" horiz-adv-x="819" 
d="M389 760q-83 0 -152.5 39.5t-112 112t-42.5 155.5q0 82 40.5 151.5t112 112.5t154.5 43q82 0 153 -42t113 -111.5t42 -153.5q0 -79 -42 -151.5t-113 -114t-153 -41.5zM387 1293q-90 0 -156.5 -66.5t-66.5 -159.5q0 -89 66.5 -157t158.5 -68q57 0 109.5 30.5t84.5 84
t32 110.5q0 59 -29.5 109.5t-84.5 83.5t-114 33z" />
    <glyph glyph-name="plusminus" unicode="&#xb1;" horiz-adv-x="1229" 
d="M557 670v289h115v-289h422v-115h-422v-289h-115v289h-422v115h422zM135 115h959v-115h-959v115z" />
    <glyph glyph-name="twosuperior" unicode="&#xb2;" horiz-adv-x="0" 
 />
    <glyph glyph-name="threesuperior" unicode="&#xb3;" horiz-adv-x="0" 
 />
    <glyph glyph-name="acute" unicode="&#xb4;" 
 />
    <glyph glyph-name="mu" unicode="&#xb5;" horiz-adv-x="1270" 
d="M918 0q-18 46 -30 97l-8 53l-3 59q-110 -100 -220 -165t-218 -65l-48 2v-16q0 -105 21 -202t67 -195h-362q44 94 66 193.5t22 203.5v185q-12 60 -12 135v446q0 106 -21 169q-9 28 -36 46.5t-66 18.5v18l332 27v-617q0 -144 30 -207t119 -63q72 0 144 42t113.5 104.5
t55 138t13.5 174.5v149q0 111 -21.5 172.5t-101.5 61.5v18l332 27v-762q0 -105 22.5 -167t104.5 -62v-19h-295z" />
    <glyph glyph-name="paragraph" unicode="&#xb6;" horiz-adv-x="1024" 
d="M895 23q0 -81 7 -120q6 -46 34.5 -81t81.5 -35v-19h-256v1449h-211v-1449h-256v19q78 0 102 65q21 60 21 171v626q-88 0 -170 48t-131 129.5t-49 171.5q0 350 409 350h541v-19q-76 0 -101 -61q-8 -26 -16 -73q-6 -44 -6 -99v-1073z" />
    <glyph glyph-name="periodcentered" unicode="&#xb7;" horiz-adv-x="656" 
d="M193 479q0 57 39 101.5t100 44.5q53 0 91 -43t38 -98q0 -57 -40 -103.5t-95 -46.5q-54 0 -93.5 44t-39.5 101z" />
    <glyph glyph-name="periodcentered" unicode="&#x2219;" horiz-adv-x="656" 
d="M193 479q0 57 39 101.5t100 44.5q53 0 91 -43t38 -98q0 -57 -40 -103.5t-95 -46.5q-54 0 -93.5 44t-39.5 101z" />
    <glyph glyph-name="cedilla" unicode="&#xb8;" horiz-adv-x="1188" 
d="M316 461q17 -105 76 -191.5t153.5 -139t196.5 -52.5q58 0 126 27.5t121 73t109 155.5l18 -8l-106 -339q-21 15 -47 15h-14l-25 -4l-215 -19q-102 0 -210 30t-203.5 96t-154.5 168.5t-59 230.5q0 148 71 268t195.5 189t272.5 69q170 0 300 -93t177 -259zM641 1282
q0 47 29.5 83t75.5 36q49 0 79.5 -33.5t30.5 -87.5q0 -42 -30 -80q-31 -34 -74 -34q-45 0 -79 34q-32 35 -32 82zM340 1282q0 47 29.5 83t75.5 36q49 0 79.5 -33.5t30.5 -87.5q0 -42 -30 -80q-31 -34 -74 -34q-45 0 -79 35q-32 35 -32 81zM858 705q-30 93 -97 160t-159 67
q-100 0 -164.5 -51.5t-100.5 -142.5q-14 -40 -24 -89q-4 -22 -7 -50t-3 -52z" />
    <glyph glyph-name="onesuperior" unicode="&#xb9;" horiz-adv-x="860" 
d="M123 1092q0 84 39 147t109.5 99t154.5 36q48 0 79 -7l34 -9l38 -16q66 -30 105 -93t39 -149l-1 -32q0 -18 -3.5 -32.5t-7 -25.5t-11.5 -27q-23 -54 -64.5 -89.5t-100.5 -58.5q-58 -20 -117 -20q-126 0 -209.5 75t-83.5 202zM598 1086q0 96 -44.5 165.5t-135.5 69.5
q-87 0 -129.5 -60.5t-42.5 -148.5q0 -92 45 -167.5t135 -75.5q84 0 128 65t44 152zM721 674v-80h-598v80h598z" />
    <glyph glyph-name="ordmasculine" unicode="&#xba;" 
 />
    <glyph glyph-name="guillemotright" unicode="&#xbb;" horiz-adv-x="738" 
d="M185 230l-56 26l84 246l-84 252l56 24l147 -276zM463 230l-55 26l84 246l-84 252l55 24l148 -276z" />
    <glyph glyph-name="onequarter" unicode="&#xbc;" horiz-adv-x="0" 
 />
    <glyph glyph-name="onehalf" unicode="&#xbd;" horiz-adv-x="0" 
 />
    <glyph glyph-name="threequarters" unicode="&#xbe;" horiz-adv-x="0" 
 />
    <glyph glyph-name="questiondown" unicode="&#xbf;" horiz-adv-x="0" 
 />
    <glyph glyph-name="Agrave" unicode="&#xc0;" horiz-adv-x="1352" 
d="M303 275q-32 -94 -32 -146q0 -45 34.5 -77.5t77.5 -32.5v-19h-418v19q35 6 62 21q12 6 22 16l23 28q42 61 92 191l330 870q15 44 23 73.5t8 45.5q0 50 -64 65v19h455v-19q-60 -15 -60 -73q0 -29 19 -80l350 -1008l17 -41l10 -24l17 -32q12 -16 32 -32q2 -1 14 -6
q28 -11 35 -14v-19h-465v19q100 21 100 143q0 70 -40.5 146.5t-116 141.5t-183.5 107q-45 17 -104 30t-119 13zM639 1194l-186 -491q79 0 154.5 -18.5t139.5 -55.5q36 -19 63 -40l29 -23q10 -8 28 -27z" />
    <glyph glyph-name="Aacute" unicode="&#xc1;" horiz-adv-x="1311" 
d="M430 248v-51q0 -52 9 -70.5t44 -27.5q43 -5 123 -5q126 0 216.5 38.5t141 108.5t50.5 152q0 98 -59.5 189t-193 150t-331.5 59v-543zM205 1094q0 109 -21.5 165.5t-109.5 69.5v19h852h14h12h28q16 0 34 3.5t33 22.5l100 -405l-18 -6q-57 144 -175.5 211t-308.5 67
q-115 0 -147 -4q-23 0 -34 -5q-12 -3 -22 -13q-14 -16 -14 -51l1 -38l1 -50v-197q260 0 447 -69t281 -182.5t94 -244.5q0 -387 -568 -387h-612v19q59 6 90 41q24 28 35 75l6 48l2 71v840z" />
    <glyph glyph-name="Acircumflex" unicode="&#xc2;" horiz-adv-x="1352" 
d="M824 1348q92 0 157.5 -9.5t119.5 -48.5q26 -19 39 -48t13 -68q0 -58 -27.5 -101t-74.5 -81q-37 -28 -105 -67l-98 -52q118 -36 217.5 -99.5t163.5 -157.5t64 -210q0 -120 -60.5 -214t-175.5 -136q-50 -19 -98 -30l-48 -10l-59 -7q-107 -9 -266 -9h-514v19q61 6 90 41
q13 15 21.5 32.5t14.5 55.5q3 18 5 44t2 62v826q0 56 -6 98.5t-18 77.5q-21 60 -109 73v19h752zM430 811q46 12 98 31l54 18l54 22q107 44 190.5 109t83.5 144q0 75 -76 97q-36 10 -82.5 16t-99.5 6q-169 0 -201 -41q-21 -27 -21 -129v-273zM430 256q0 -70 9 -101.5
t43 -47.5q42 -13 108 -13q217 0 326 68q63 41 103 116.5t40 155.5q0 130 -93 235t-226 163l-310 -117v-459z" />
    <glyph glyph-name="Atilde" unicode="&#xc3;" horiz-adv-x="1147" 
d="M1166 953l-17 -5q-24 74 -91.5 142t-179.5 116t-247 48q-91 0 -128.5 -15.5t-50.5 -50.5q-5 -16 -8 -45t-3 -70v-807q0 -83 6 -126t36 -81q30 -34 93 -42v-17h-494v19q58 6 88 39t37 77l6 48l2 71v826q0 81 -7 120q-6 47 -33.5 81t-92.5 48v19h883h12q18 0 33 0.5
t32.5 4.5t30.5 21z" />
    <glyph glyph-name="Adieresis" unicode="&#xc4;" horiz-adv-x="1393" 
d="M451 107h354q73 0 114.5 29t41.5 130v807q0 76 -8 105q-6 35 -44 55q-36 21 -116 21q-67 0 -129.5 -30.5t-104.5 -88.5q-66 -90 -130 -230q-5 -12 -22 -54t-34 -91q-24 -71 -46 -162q-40 -175 -40 -336q0 -74 17.5 -106t51.5 -41l39 -6zM1342 72l100 -406l-18 -6
q-39 103 -105.5 177t-164 118.5t-214.5 44.5h-594q-119 0 -213 -42t-160.5 -117t-109.5 -181l-19 6l100 406q28 -23 50 -23q46 0 86 76q35 69 47 139q15 117 39 220.5t64 224.5q17 52 42 116q12 32 24 59.5t29 60.5q57 121 130 223q27 36 27 84q0 65 -64 77v19h901v-19
q-84 -12 -108.5 -75.5t-24.5 -173.5v-826q0 -46 5 -76.5t8.5 -43t12.5 -30.5q27 -57 70 -57q25 0 60 25z" />
    <glyph glyph-name="Aring" unicode="&#xc5;" horiz-adv-x="1270" 
d="M1151 961l-16 -6q-39 95 -120.5 164t-183.5 102t-212 33q-76 0 -115 -12.5t-56.5 -49.5t-17.5 -110v-117h158h45q86 0 134 22.5t48 100.5l19 6l80 -459l-17 -6q-24 84 -62 134q-36 52 -83.5 72t-111.5 29l-81 2l-80 3h-49v-549q0 -95 10.5 -138t58 -65.5t142.5 -22.5
q420 0 615 396l20 -6l-174 -511q-20 27 -90 27h-940v19q62 9 90.5 42t35.5 76l5 50l2 67v826q0 116 -23 174q-21 62 -110 75v19h876q78 0 111 24z" />
    <glyph glyph-name="AE" unicode="&#xc6;" horiz-adv-x="2089" 
d="M801 0v19q31 0 51 10q22 9 39 31q24 28 35 81l6 53l2 75v446l-162 152q-155 -171 -268 -365q-44 -80 -96.5 -206t-52.5 -197q0 -35 19 -57.5t52 -22.5v-19h-451v19q58 6 88 51q14 23 31 58.5t37 84.5l39 94q85 216 199 390t254 305l-154 127l-136 106q-37 29 -108 61
q-36 15 -68.5 24t-70.5 9v19h494v-19q-55 0 -55 -49q0 -47 84 -137q78 -81 169 -158l156 -141v250q0 113 -22 169q-12 30 -39.5 48t-71.5 18v19h492v-19q-41 0 -69 -17t-42 -49q-23 -58 -23 -169v-250l156 141q86 71 170 159.5t84 135.5q0 49 -55 49v19h493v-19
q-28 0 -49 -5q-11 -2 -25 -6t-33 -10q-51 -16 -96 -45q-18 -11 -45 -30t-51 -38l-84 -66l-153 -127q138 -130 250.5 -303t201.5 -392l39 -94q38 -94 65.5 -140t90.5 -54v-19h-451v19q30 0 51 22.5t21 57.5q0 72 -49 194q-25 63 -49.5 113.5t-50.5 94.5t-57 91.5t-66 94.5
q-70 97 -146 180l-162 -152v-446q0 -83 6 -127t37 -82q26 -32 91 -41v-19h-492z" />
    <glyph glyph-name="Ccedilla" unicode="&#xc7;" horiz-adv-x="1229" 
d="M1059 1092q0 -103 -95.5 -180t-221.5 -121q191 -39 309.5 -129.5t118.5 -255.5q0 -97 -42.5 -176t-123 -135t-211.5 -91q-30 -7 -60 -12.5t-69.5 -10t-74 -6.5t-79.5 -2l-59 4l-95 3l-69 3l-66 4q-54 0 -71 -10l-115 396l16 6q53 -122 173.5 -210.5t259.5 -88.5
q140 0 242.5 36t156 110.5t53.5 183.5q0 113 -69.5 180.5t-206 96t-336.5 28.5v94q127 0 240 30t182 90t69 144q0 195 -258 195q-52 0 -98.5 -7t-87.5 -22q-78 -26 -140 -87q-28 -27 -58 -66q-24 -34 -50 -86l-20 8l137 383q24 -35 78 -35q26 0 95 10l72 8l72 3
q170 0 282 -36.5t166 -100t54 -148.5z" />
    <glyph glyph-name="Egrave" unicode="&#xc8;" horiz-adv-x="1475" 
d="M432 269q0 -86 7 -129q6 -46 35 -79q27 -33 91 -42v-19h-491v19q59 6 90 41q24 28 35 75l6 48l2 71v826q0 61 -5 102t-18 74q-21 60 -110 73v19h491v-19q-60 -6 -89.5 -38.5t-36.5 -76.5l-5 -53l-2 -67v-432l611 532q0 55 -23 90q-21 36 -110 45v19h491v-19
q-61 -7 -89 -38t-37 -78l-5 -52l-2 -67v-825q0 -85 8 -125q6 -47 34 -82t91 -43v-19h-491v19q84 0 108.5 61.5t24.5 173.5v801l-611 -533v-253z" />
    <glyph glyph-name="Eacute" unicode="&#xc9;" horiz-adv-x="1475" 
d="M512 1639q85 -115 234 -115q84 0 136.5 30t96.5 85h23q-6 -67 -40.5 -120t-90.5 -82.5t-125 -29.5q-20 0 -30 1t-36.5 6.5t-55.5 21.5q-52 28 -95 84l-16 25l-13 32l-7 30l-3 32h22zM432 269q0 -86 7 -129q6 -46 35 -79q27 -33 91 -42v-19h-491v19q59 6 90 41
q24 28 35 75l6 48l2 71v826q0 61 -5 102t-18 74q-21 60 -110 73v19h491v-19q-60 -6 -89.5 -38.5t-36.5 -76.5l-5 -53l-2 -67v-432l611 532q0 55 -23 90q-21 36 -110 45v19h491v-19q-61 -7 -89 -38t-37 -78l-5 -52l-2 -67v-825q0 -85 8 -125q6 -47 34 -82t91 -43v-19h-491v19
q84 0 108.5 61.5t24.5 173.5v801l-611 -533v-253z" />
    <glyph glyph-name="Ecircumflex" unicode="&#xca;" horiz-adv-x="1393" 
d="M207 1080v14v12l-1 39v17q-3 12 -4 18q0 18 -4 34.5t-14 39.5q-23 62 -110 75v19h491v-19q-40 0 -67.5 -17t-42.5 -49q-23 -58 -23 -169v-250l177 141q124 104 193 170q81 77 81 125q0 42 -55 49v19h493v-19l-29 -1q-13 0 -20 -1t-25 -7q-25 -6 -65 -24q-63 -26 -108 -61
l-136 -106l-153 -127q138 -130 250.5 -303t201.5 -392l39 -94q38 -94 65.5 -140t90.5 -54v-19h-451v19q72 9 72 80q0 34 -12 82q-6 26 -15 51.5t-23 58.5q-48 124 -100 211q-104 179 -276 369l-195 -156v-446q0 -86 7 -129q6 -46 35 -79q27 -33 91 -42v-19h-491v19
q62 9 90.5 42t35.5 76l5 50l2 67v826z" />
    <glyph glyph-name="Edieresis" unicode="&#xcb;" horiz-adv-x="1352" 
d="M752 1254q-145 0 -234 -119q-66 -93 -130 -230l-22 -54l-34 -91q-22 -65 -46 -162q-40 -178 -40 -336q0 -91 43.5 -162t138.5 -81v-19h-364l3 94l1 35l10 82q15 124 54.5 297t108.5 341q19 46 37 85.5t40 79.5q39 75 96 154q27 36 27 84q0 65 -64 77v19h901v-19
q-84 -12 -108.5 -75.5t-24.5 -173.5v-826q0 -79 6.5 -118.5t36.5 -75.5q24 -29 90 -41v-19h-493v17q62 6 91 41t36.5 86.5t7.5 121.5v807q0 97 -29.5 139t-138.5 42z" />
    <glyph glyph-name="Igrave" unicode="&#xcc;" horiz-adv-x="1618" 
d="M342 1207v-938q0 -86 7 -129q6 -46 35 -79q27 -33 91 -42v-19h-399v19q58 6 88 39t37 77l6 48l2 71v826q0 61 -5 102t-18 74q-21 60 -110 73v19h518v-19q-35 -8 -35 -39q0 -23 27 -77l235 -430l234 378q53 86 53 125q0 31 -39 43v19h494v-19q-60 -9 -90 -42
q-27 -33 -36 -76l-5 -50l-2 -67v-825q0 -81 7 -122q6 -45 34 -81.5t92 -46.5v-19h-492v19q61 6 88.5 36.5t36.5 76.5l6 50l2 72v953l-448 -728z" />
    <glyph glyph-name="Iacute" unicode="&#xcd;" horiz-adv-x="1475" 
d="M432 269q0 -86 7 -129q6 -46 35 -79q27 -33 91 -42v-19h-491v19q59 6 90 41q24 28 35 75l6 48l2 71v826q0 61 -5 102t-18 74q-21 60 -110 73v19h491v-19q-60 -6 -89.5 -38.5t-36.5 -76.5l-5 -53l-2 -67v-121h611v107q0 77 -6.5 124.5t-36.5 85.5q-15 18 -37.5 28.5
t-52.5 10.5v19h491v-19q-83 -9 -109 -66q-11 -28 -17.5 -70.5t-6.5 -98.5v-825q0 -85 8 -125q6 -47 34 -82t91 -43v-19h-491v19q84 0 109 62q4 10 9.5 36t7.5 37l5 46l2 54v621h-611v-606z" />
    <glyph glyph-name="Icircumflex" unicode="&#xce;" horiz-adv-x="1639" 
d="M312 162q-32 30 -61.5 66.5t-54.5 77.5q-47 78 -75.5 177.5t-28.5 186.5q0 153 55 282t153.5 222.5t232.5 147.5q68 26 136 39q29 5 70 9t76 4q153 0 285 -51t237 -150q99 -96 154 -230t55 -287q0 -76 -14 -143t-43.5 -130.5t-70 -118t-92.5 -99.5q-99 -88 -233.5 -140
t-277.5 -52q-73 0 -139.5 11t-134.5 36q-131 48 -229 142zM862 80q136 0 234.5 69.5t152.5 190.5q26 61 39 124.5t13 129.5q0 176 -72 331t-196 249t-265 94q-138 0 -234.5 -72t-146 -193.5t-49.5 -258.5q0 -159 61.5 -312t181.5 -252.5t281 -99.5z" />
    <glyph glyph-name="Idieresis" unicode="&#xcf;" horiz-adv-x="1475" 
d="M1403 1348v-19q-84 -12 -108.5 -75.5t-24.5 -173.5v-826q0 -79 6.5 -118.5t36.5 -75.5q24 -29 90 -41v-19h-493v17q62 6 91 41t36.5 86.5t7.5 121.5v807q0 84 -11 114q-9 36 -52 51q-23 8 -52.5 12t-75.5 4h-229q-91 0 -128 -15.5t-52 -51.5q-11 -39 -11 -114v-807
q0 -87 7.5 -129.5t35.5 -77.5q29 -33 93 -42v-17h-494v19q58 6 88 39t37 77l6 48l2 71v826q0 81 -7 120q-6 47 -33.5 81t-92.5 48v19h1327z" />
    <glyph glyph-name="Eth" unicode="&#xd0;" horiz-adv-x="1188" 
d="M828 1348q76 0 132.5 -11t102.5 -36q88 -47 88 -183q0 -98 -74.5 -181t-192 -145t-228.5 -101.5t-222 -69.5v-352q0 -83 6 -127t37 -82q26 -32 91 -41v-19h-492v19q58 6 88 39t37 77l6 48l2 71v826q0 84 -7 123q-6 46 -35 81.5t-91 44.5v19h752zM434 719q488 155 488 367
q0 91 -77 131q-37 17 -92 27q-25 4 -59 7t-67 3q-96 0 -135 -18.5t-48.5 -55t-9.5 -123.5v-338z" />
    <glyph glyph-name="Ntilde" unicode="&#xd1;" horiz-adv-x="1434" 
d="M1270 -21q-20 6 -68 6l-247 -12q-374 0 -598 185q-87 72 -145 163.5t-89 200t-31 220.5q0 140 50 263.5t151.5 208t231.5 122.5t280 38l225 -18l66 -6q56 0 80 43l94 -387l-16 -6q-18 43 -43 76.5t-64 69.5q-68 59 -159 90.5t-183 31.5q-109 0 -189 -30.5t-147 -106.5
q-60 -72 -97 -173q-14 -45 -24 -98q-4 -23 -7 -51.5t-3 -52.5q0 -136 42.5 -255.5t125 -215.5t197 -150.5t252.5 -54.5q301 0 452 320l21 -9z" />
    <glyph glyph-name="Ograve" unicode="&#xd2;" horiz-adv-x="1188" 
d="M705 266q0 -82 6 -128t36 -84q30 -35 91 -35v-19h-492v19q85 0 109 57.5t24 177.5v987q-190 0 -305.5 -63.5t-177.5 -214.5l-19 6l101 405q12 -15 38 -22l32 -3l51 -1h786h14h12q41 0 61.5 3t33.5 23l101 -405l-19 -6q-57 144 -175.5 211t-307.5 67v-975z" />
    <glyph glyph-name="Oacute" unicode="&#xd3;" horiz-adv-x="1352" 
d="M709 324l-479 784q-63 107 -106 159t-101 62v19h448v-19q-43 -8 -43 -53q0 -53 82 -192l305 -529l222 531q20 50 30 88t10 67q0 75 -71 88v19h364v-19q-57 -6 -98 -60q-33 -46 -82 -153l-350 -784q-144 -326 -346 -359q-33 -6 -64 -6q-153 0 -276 111l151 369l21 -2
q-14 -84 -14 -138q0 -217 174 -217q127 18 223 234z" />
    <glyph glyph-name="Ocircumflex" unicode="&#xd4;" horiz-adv-x="1762" 
d="M768 285v778q-98 0 -178 -23t-145 -70q-117 -86 -117 -239q0 -105 54 -198.5t155 -159.5q98 -62 231 -88zM991 1063v-778q96 0 178.5 24t144.5 67q120 81 120 230q0 91 -35 169t-95 134t-144 98q-40 20 -82 33q-13 4 -38.5 11t-48.5 12zM991 1149q94 0 187 -18
q69 -14 167 -48q157 -54 247 -163.5t90 -261.5q0 -57 -12.5 -102t-43.5 -91q-55 -85 -152 -140.5t-218 -87.5q-72 -18 -126 -27q-88 -13 -139 -13q0 -56 9 -90t39 -60q28 -19 88 -28v-19h-494v19q62 8 88.5 26t37.5 54q9 36 9 98q-92 0 -184 18t-174 52q-156 59 -243 162.5
t-87 240.5q0 109 54 198.5t147 147t220 93.5l61 15l67 13l71 9l68 3q0 91 -24.5 129.5t-110.5 50.5v19h494v-19q-60 -9 -90 -30q-26 -16 -38 -54q-8 -37 -8 -96z" />
    <glyph glyph-name="Otilde" unicode="&#xd5;" horiz-adv-x="1311" 
d="M1166 174q51 -75 87 -111q32 -30 99 -44v-27l-537 8v19q99 11 99 84q0 48 -49 125l-265 395l-192 -287q-117 -174 -117 -242q0 -63 90 -75v-19h-418v19q38 6 67 23.5t54 45.5l22 27l28 37l42 61l359 514l-230 346q-78 116 -136.5 181.5t-133.5 74.5v19h522v-19
q-88 -14 -88 -71q0 -41 60 -133l137 -205l135 192q80 113 80 164q0 44 -66 53v19h398v-19l-47 -9l-20 -7l-20 -10q-40 -22 -72 -55l-28 -31l-22 -27l-66 -92l-198 -283z" />
    <glyph glyph-name="Odieresis" unicode="&#xd6;" horiz-adv-x="1475" 
d="M76 0v19q85 12 109 74.5t24 175.5v825q0 78 -7 116q-6 43 -35 76q-27 33 -91 43v19h494v-17q-62 -6 -92 -40q-26 -32 -37 -84l-5 -54l-2 -71v-807q0 -77 9.5 -113t54.5 -52t127 -16h227q90 0 129 15t51 51l8 46l3 69v807q0 82 -8 125q-6 49 -35 81q-27 33 -92 43v17h493
v-19q-84 -12 -108.5 -69.5t-24.5 -165.5v-825q0 -104 33.5 -156.5t70.5 -52.5q15 0 29 12l100 -406l-18 -6q-18 48 -45 93t-61 85q-63 73 -162 119q-41 17 -98.5 30t-116.5 13h-924z" />
    <glyph glyph-name="multiply" unicode="&#xd7;" horiz-adv-x="1434" 
d="M174 1080v15v13q0 21 -1 40.5t-4 35.5q-4 40 -18 73q-21 60 -110 72v19h492v-19q-43 0 -69.5 -16t-40.5 -49q-23 -58 -23 -170v-137q0 -107 66 -171.5t169 -64.5q170 0 367 100v259q0 77 -6.5 124.5t-36.5 85.5q-15 18 -37.5 28.5t-52.5 10.5v19h491v-19
q-61 -7 -88.5 -40t-36.5 -77l-6 -61l-2 -57v-825l1 -75q0 -16 7 -56t34.5 -75.5t90.5 -43.5v-19h-491v19q84 0 109 62q4 10 9.5 36t7.5 37l5 46l2 54v469q-241 -137 -461 -137q-160 0 -263.5 99.5t-103.5 250.5v144z" />
    <glyph glyph-name="Oslash" unicode="&#xd8;" horiz-adv-x="1925" 
d="M1229 94h72q89 0 128 15t51 51l8 46l3 69v807q0 85 -7 126q-6 45 -35 79t-93 44v17h494v-19q-87 -12 -110.5 -70t-23.5 -165v-825q0 -110 21.5 -172t112.5 -78v-19h-1774v19q85 12 109 74.5t24 175.5v825q0 78 -7 116q-6 43 -35 76q-27 33 -91 43v19h494v-17
q-62 -6 -92 -40q-26 -32 -37 -84l-5 -54l-2 -71v-807q0 -77 9.5 -113t54.5 -52t127 -16h72q63 0 96 15t45 48t12 97v826q0 61 -5 102t-18 74q-21 60 -110 73v19h492v-19q-60 -9 -91 -43q-27 -33 -36 -77l-5 -51l-2 -66v-823q0 -76 11 -108q9 -36 42.5 -51.5t100.5 -15.5z
" />
    <glyph glyph-name="Ugrave" unicode="&#xd9;" horiz-adv-x="1925" 
d="M76 0v19q85 12 109 74.5t24 175.5v825q0 78 -7 116q-6 43 -35 76q-27 33 -91 43v19h494v-17q-62 -6 -92 -40q-26 -32 -37 -84l-5 -54l-2 -71v-807q0 -77 9.5 -113t54.5 -52t127 -16h72q63 0 96 15t45 48t12 97v826q0 61 -5 102t-18 74q-21 60 -110 73v19h492v-19
q-60 -9 -91 -43q-27 -33 -36 -77l-5 -51l-2 -66v-823q0 -76 11 -108q9 -36 42.5 -51.5t100.5 -15.5h72q89 0 128 15t51 51l8 46l3 69v807q0 85 -7 126q-6 45 -35 79t-93 44v17h494v-19q-87 -12 -110.5 -70t-23.5 -165v-825q0 -104 33.5 -156.5t71.5 -52.5q15 0 29 12
l100 -406l-18 -6q-39 103 -105.5 177t-164 118.5t-214.5 44.5h-1372z" />
    <glyph glyph-name="Uacute" unicode="&#xda;" horiz-adv-x="1434" 
d="M637 248q0 -55 9 -86.5t47 -50.5q40 -17 122 -17q107 0 184.5 36t119.5 103.5t42 159.5q0 102 -66.5 191t-187.5 144q-63 30 -126 45q-71 18 -144 18v-543zM412 1256h-82q-121 0 -201 -80q-73 -70 -137 -213l-19 6l101 405q12 -15 38 -22l32 -3l51 -1h577v-19
q-42 0 -69 -18.5t-41 -54.5q-23 -67 -23 -176l-2 -197q95 0 199 -21l87 -22q46 -12 95 -31q170 -62 271.5 -172.5t101.5 -249.5q0 -124 -65 -210.5t-190.5 -131.5t-303.5 -45h-553v19q58 6 88 39q27 32 38 79l5 51l2 66v1002z" />
    <glyph glyph-name="Ucircumflex" unicode="&#xdb;" horiz-adv-x="1843" 
d="M1635 269q0 -78 6 -123t35.5 -81t91.5 -46v-19h-492v19q60 7 87.5 38t36.5 76.5t9 120.5v826q0 61 -5 102t-18 74q-21 60 -110 73v19h492v-19q-60 -9 -91 -43q-11 -12 -23 -35l-12 -42l-5 -50l-2 -67v-823zM432 248q0 -55 9 -86.5t46 -50.5q40 -17 117 -17
q106 0 186.5 36t123.5 105.5t43 157.5q0 102 -66.5 191t-187.5 144q-67 30 -127 45q-71 18 -144 18v-543zM1186 387q0 -123 -63 -209.5t-190 -132t-306 -45.5h-553v19q61 6 90 41q13 15 21.5 32.5t14.5 55.5q3 18 5 44t2 62v826q0 56 -6 98.5t-18 77.5q-21 60 -109 73v19
h506v-19q-54 -9 -84 -32q-29 -20 -44 -56l-11 -32l-7 -43l-2 -82v-201q95 0 199 -21l87 -22q46 -12 95 -31q171 -63 272 -172.5t101 -249.5z" />
    <glyph glyph-name="Udieresis" unicode="&#xdc;" horiz-adv-x="1229" 
d="M432 248q0 -55 9 -86.5t46 -50.5q40 -17 117 -17q106 0 186.5 36t123.5 105.5t43 157.5q0 102 -66.5 191t-187.5 144q-67 30 -127 45q-71 18 -144 18v-543zM1186 387q0 -123 -63 -209.5t-190 -132t-306 -45.5h-553v19q61 6 90 41q13 15 21.5 32.5t14.5 55.5q3 18 5 44
t2 62v826q0 56 -6 98.5t-18 77.5q-21 60 -109 73v19h506v-19q-54 -9 -84 -32q-29 -20 -44 -56l-11 -32l-7 -43l-2 -82v-201q95 0 199 -21l87 -22q46 -12 95 -31q171 -63 272 -172.5t101 -249.5z" />
    <glyph glyph-name="Yacute" unicode="&#xdd;" horiz-adv-x="1434" 
d="M1080 776q-27 141 -93 252.5t-169 175.5t-236 64q-297 0 -432 -268l-21 8l137 385q28 -37 82 -37l96 9q77 9 138 9q173 0 312 -55.5t238 -157t154.5 -242t55.5 -306.5q0 -159 -62 -279.5t-171.5 -200t-255.5 -120.5q-74 -20 -150.5 -30t-165.5 -10l-61 4l-93 3l-76 3
l-59 4q-55 0 -72 -10l-114 396l16 6q36 -86 109 -155q70 -64 166 -107q93 -39 184 -39q160 0 286.5 68.5t197.5 203.5t71 318h-633v108h621z" />
    <glyph glyph-name="Thorn" unicode="&#xde;" horiz-adv-x="2089" 
d="M1356 80q135 0 223 69.5t130 187t42 257.5q0 77 -7.5 133.5t-27.5 123.5q-35 122 -101 214.5t-157.5 147.5t-197.5 55q-199 0 -295 -150q-45 -75 -69 -169q-11 -45 -17 -96.5t-6 -108.5q0 -162 51 -314t162 -251t270 -99zM627 670h-195v-401q0 -86 7 -129q6 -46 35 -79
q27 -33 91 -42v-19h-491v19q59 6 90 41q24 28 35 75l6 48l2 71v826q0 61 -5 102t-18 74q-21 60 -110 73v19h491v-19q-60 -6 -89.5 -38.5t-36.5 -76.5l-5 -53l-2 -67v-320h197q0 56 18 122q14 50 45 114q54 107 143.5 188.5t211 128.5t260.5 47q150 0 276.5 -50t224.5 -151
q90 -93 139.5 -226.5t49.5 -290.5q0 -148 -52 -273t-144.5 -214.5t-223.5 -144.5q-126 -51 -268 -51q-77 0 -138 12.5t-130 42.5q-125 55 -212.5 148.5t-143.5 224.5q-26 67 -42 133q-8 36 -12 67t-4 69z" />
    <glyph glyph-name="germandbls" unicode="&#xdf;" horiz-adv-x="1393" 
d="M1319 1348v-19q-83 -12 -110 -75q-23 -64 -23 -174v-824q0 -28 1 -52.5t4.5 -53t17.5 -60.5q21 -55 110 -71v-19h-491v19q58 6 88 39q27 32 38 82l5 55l2 74v366l-238 82l-99 -141l-47 -73l-44 -70l-38 -66l-37 -68l-58 -123q-19 -48 -19 -77q0 -64 76 -80v-19h-432v19
q42 9 73.5 60t98.5 190q131 279 330 532q-113 60 -171.5 100t-99.5 101.5t-41 136.5q0 99 83.5 154t228.5 55h792zM961 1082v17v14v11q0 45 -5 61q-3 29 -27 47q-10 8 -24 12l-21 5l-23 1l-160 4q-39 0 -67 -2t-67.5 -9.5t-74.5 -45t-35 -105.5q0 -84 85 -156.5t206 -127.5
q54 -24 105 -42l108 -35v351z" />
    <glyph glyph-name="agrave" unicode="&#xe0;" horiz-adv-x="1147" 
d="M873 0q-32 42 -51 91t-19 94q-34 -65 -103 -116q-30 -21 -66 -39q-10 -4 -36 -14q-19 -7 -42 -15l-79 -16q-41 -6 -81 -6q-141 0 -232.5 65t-91.5 175q0 109 71.5 188.5t177.5 127.5q49 22 114 44t141 42l211 51v39q0 79 -20 120q-18 42 -64 63.5t-123 21.5
q-98 0 -180 -30.5t-149 -94.5q-63 -60 -107 -154l32 336q38 -27 62 -27l25 4l44 13q105 35 179 51l81 12l95 4q133 0 206.5 -31.5t106.5 -107t33 -205.5v-385q0 -121 24 -191t121 -91v-19h-280zM787 588q-180 -39 -331 -120.5t-151 -221.5q0 -69 49 -110.5t117 -41.5
q171 0 243.5 124.5t72.5 318.5v51z" />
    <glyph glyph-name="aacute" unicode="&#xe1;" horiz-adv-x="1270" 
d="M307 539q0 -57 8 -109t26 -109q35 -106 110 -174.5t190 -68.5q95 0 168.5 57t112.5 152.5t39 202.5q0 110 -33.5 210.5t-108 166t-188.5 65.5q-162 0 -243 -111.5t-81 -281.5zM441 1383q58 26 150 46l193 36q113 20 171 43q42 15 68 44t26 54h10q0 -114 -48.5 -195.5
t-131.5 -117.5q-49 -20 -122 -36l-143 -32l-30 -7l-40 -12q-10 -3 -23.5 -8t-34.5 -14q-120 -51 -208 -163q-41 -55 -67 -118q-8 -24 -15 -58.5t-7 -66.5q66 102 186 177t268 75q158 0 283 -60.5t196.5 -176.5t71.5 -275q0 -163 -72.5 -282.5t-207.5 -188t-291 -68.5
q-151 0 -278.5 63t-199 181.5t-71.5 274.5q0 193 30 366q15 86 42 162.5t68 148.5q81 138 227 208z" />
    <glyph glyph-name="acircumflex" unicode="&#xe2;" horiz-adv-x="1188" 
d="M701 572l-308 -76v-240q0 -94 10.5 -123.5t52.5 -38.5l63 -7l102 -3q121 0 204 60t83 165q0 87 -54.5 156t-152.5 107zM625 1010q114 0 192 -9.5t134.5 -52t56.5 -127.5q0 -69 -57 -123t-146 -83q140 -27 238 -103t98 -184t-64 -181t-174 -110q-52 -17 -115 -27t-128 -10
h-598v19q39 0 63 17t38 49q10 32 16 74.5t6 92.5v506q0 104 -21 167q-11 30 -37 48t-65 18v19h563zM594 635q193 48 193 168q0 123 -187 123q-109 0 -148.5 -9.5t-49 -40t-9.5 -118.5v-172z" />
    <glyph glyph-name="atilde" unicode="&#xe3;" horiz-adv-x="942" 
d="M744 1010h14h12q44 0 57 5q22 3 38 22l100 -406l-19 -6q-60 159 -146.5 225t-264.5 66q-69 0 -96.5 -15.5t-38.5 -45.5l-5 -39l-2 -58v-506q0 -110 21 -171.5t102 -61.5v-19h-454v19q24 0 46.5 9t36.5 28q27 33 33 78l5 51l2 67v506q0 104 -21 167q-11 30 -37 48t-65 18
v19h682z" />
    <glyph glyph-name="adieresis" unicode="&#xe4;" horiz-adv-x="1188" 
d="M414 82h235q68 0 107 21t39 98v557q0 75 -8 104q-6 31 -35.5 51.5t-91.5 20.5q-120 0 -199 -88q-54 -61 -100 -162.5t-73.5 -233.5t-27.5 -253q0 -55 16 -78.5t46.5 -30t91.5 -6.5zM1127 49l100 -385l-18 -4q-144 340 -480 340h-350q-117 0 -212.5 -42t-162.5 -118
l-31 -38l-29 -42q-12 -19 -26 -46t-25 -52l-16 4l100 383q28 -20 50 -20q57 0 86 168q12 101 42 223q14 54 36 117l22 61q12 33 25 59q49 113 129 214q24 27 24 67q0 56 -59 56v16h795v-16q-76 0 -101 -62q-22 -66 -22 -174v-551q0 -178 73 -178q24 0 50 20z" />
    <glyph glyph-name="aring" unicode="&#xe5;" horiz-adv-x="1147" 
d="M307 461q15 -102 75 -189t154.5 -140.5t196.5 -53.5q60 0 131 30t117 70q52 44 109 156l18 -8l-106 -339q-21 15 -47 15h-14l-25 -4l-215 -19q-102 0 -210 30t-203 96t-154.5 166.5t-59.5 232.5q0 150 71.5 269t195.5 189q62 33 129.5 50.5t142.5 17.5q170 0 300 -93
t177 -259zM850 705q-30 93 -97 160t-159 67q-95 0 -162.5 -51t-102.5 -143q-14 -41 -24 -90.5t-10 -100.5z" />
    <glyph glyph-name="ae" unicode="&#xe6;" horiz-adv-x="1802" 
d="M674 0v19q81 0 102 57t21 178v217l-127 131q-51 -39 -129 -144q-35 -47 -69.5 -103t-60.5 -106q-54 -107 -54 -165q0 -24 21 -47q21 -18 48 -18v-19h-436v19q51 6 68 29q15 18 55 92q75 147 122 223l30 49l31 48l67 95q68 91 153 172l-51 45q-127 111 -191.5 156.5
t-162.5 62.5v19h418v-19q-58 -8 -58 -45q0 -48 76 -118l250 -260v190q0 109 -21 171t-102 62v19h455v-19q-75 0 -101 -60q-8 -26 -15 -72t-7 -101v-190l250 260q75 71 75 118q0 36 -57 45v19h418v-19q-52 -6 -97 -28q-45 -19 -91 -53l-53 -39l-31 -27l-82 -72l-52 -45
q83 -77 154.5 -173t125.5 -189q48 -82 124 -225l25 -49l22 -33q8 -11 30 -25l19 -9l27 -5v-19h-436v19q27 0 48 18t21 47q0 57 -52 161t-129 209t-132 148l-127 -131v-217q0 -80 6 -126.5t33 -79.5q27 -29 84 -29v-19h-455z" />
    <glyph glyph-name="ccedilla" unicode="&#xe7;" horiz-adv-x="983" 
d="M824 805q0 -81 -67.5 -136.5t-164.5 -78.5q155 -33 240.5 -101.5t85.5 -185.5q0 -93 -54.5 -164.5t-168 -114.5t-273.5 -43q-29 0 -106 9l-65 6l-52 2q-57 0 -102 -15l-62 296l12 4q42 -83 140.5 -144t205.5 -61q40 0 75.5 6t71.5 20q71 27 114 78.5t43 122.5
q0 114 -92.5 169t-323.5 55v77q165 0 239 44t74 141q0 58 -45.5 101.5t-118.5 43.5q-121 0 -197 -57t-143 -172l-16 6l106 326q20 -25 56 -25l75 8l60 6l59 2q192 0 293 -57.5t101 -167.5z" />
    <glyph glyph-name="egrave" unicode="&#xe8;" horiz-adv-x="1270" 
d="M877 764l-484 -422v-90q0 -110 21 -171.5t102 -61.5v-19h-454v19q39 0 63 17t38 49q10 32 16 74.5t6 92.5v506q0 104 -21 167q-11 30 -37 48t-65 18v19h454v-19q-75 0 -101 -60q-8 -26 -15 -72t-7 -101v-301l484 422q0 21 -24 65q-12 21 -38 34t-61 13v19h455v-19
q-75 0 -101 -60q-8 -26 -15 -72t-7 -101v-506q0 -109 21 -171t102 -62v-19h-455v19q39 0 63 17t38 49q10 32 16 74.5t6 92.5v512z" />
    <glyph glyph-name="eacute" unicode="&#xe9;" horiz-adv-x="1270" 
d="M877 764l-484 -422v-90q0 -110 21 -171.5t102 -61.5v-19h-454v19q39 0 63 17t38 49q10 32 16 74.5t6 92.5v506q0 104 -21 167q-11 30 -37 48t-65 18v19h454v-19q-75 0 -101 -60q-8 -26 -15 -72t-7 -101v-301l484 422q0 21 -24 65q-12 21 -38 34t-61 13v19h455v-19
q-75 0 -101 -60q-8 -26 -15 -72t-7 -101v-506q0 -109 21 -171t102 -62v-19h-455v19q39 0 63 17t38 49q10 32 16 74.5t6 92.5v512zM402 1399q85 -115 233 -115q88 0 139 32q23 13 49 36q25 20 46 47h22q-6 -67 -40.5 -120t-91 -82t-124.5 -29q-62 0 -121.5 30t-94.5 83
q-19 29 -30 58q-10 35 -10 60h23z" />
    <glyph glyph-name="ecircumflex" unicode="&#xea;" horiz-adv-x="1229" 
d="M408 568l270 260q76 71 76 118q0 36 -57 45v19h417v-19q-48 -6 -98 -28q-24 -10 -46 -22.5t-46.5 -31t-38.5 -29.5t-43 -36l-82 -72l-51 -45q118 -109 212 -253q88 -135 191 -334l26 -49l22 -33q9 -13 27 -24q18 -9 48 -15v-19h-436v19q27 0 48.5 18.5t21.5 46.5
q0 55 -53.5 161.5t-129.5 210t-131 146.5l-147 -131v-217q0 -80 6 -126.5t33 -79.5q27 -29 84 -29v-19h-455v19q40 0 64 17.5t37 48.5q22 66 22 167v506q0 104 -21 167q-11 30 -37 48t-65 18v19h455v-19q-75 0 -101 -60q-8 -26 -15 -72t-7 -101v-190z" />
    <glyph glyph-name="edieresis" unicode="&#xeb;" horiz-adv-x="1147" 
d="M619 934q-120 0 -199 -88q-87 -93 -144 -273.5t-57 -377.5q0 -64 47 -117q21 -24 58 -44q33 -15 78 -15v-19h-338q0 522 262 871q24 36 24 67q0 47 -57 56v16h793v-16q-76 0 -101 -62q-22 -66 -22 -174v-506q0 -109 21 -171t102 -62v-19h-457v19q79 0 103 60l16 74
q6 44 6 99v506q0 73 -6.5 105t-35.5 51.5t-93 19.5z" />
    <glyph glyph-name="igrave" unicode="&#xec;" horiz-adv-x="1393" 
d="M295 869v-600v-32l2 -33l6 -58q8 -51 34.5 -84.5t84.5 -42.5v-19h-360v19q77 12 99 69q10 28 16 70t6 96v488q0 111 -21 174t-100 75v19h467v-19q-35 -8 -35 -38q0 -35 26 -78l170 -318l160 267q51 95 51 127q0 28 -36 40v19h466v-19q-54 -9 -78.5 -39.5t-35.5 -79.5
q-6 -44 -6 -116v-487q0 -84 6 -134t32 -80q14 -17 34 -26.5t48 -9.5v-19h-452v19q40 0 63.5 17.5t36.5 49.5q23 61 23 168v615l-367 -617z" />
    <glyph glyph-name="iacute" unicode="&#xed;" horiz-adv-x="1270" 
d="M877 584h-484v-332q0 -110 21 -171.5t102 -61.5v-19h-454v19q77 0 101 60l16 74q6 44 6 99v506q0 109 -21 171t-102 62v19h454v-19q-75 0 -101 -60q-8 -26 -15 -72t-7 -101v-82h484v82q0 109 -21 171t-102 62v19h455v-19q-75 0 -101 -60q-8 -26 -15 -72t-7 -101v-506
q0 -109 21 -171t102 -62v-19h-455v19q77 0 101 60l16 74q6 44 6 99v332z" />
    <glyph glyph-name="icircumflex" unicode="&#xee;" horiz-adv-x="1270" 
d="M74 498q0 161 74.5 281t207 185.5t287.5 65.5q158 0 282.5 -59.5t197.5 -177t73 -275.5t-75 -284q-37 -63 -88.5 -108t-117.5 -81q-134 -66 -292 -66q-151 0 -278.5 63t-199 181.5t-71.5 274.5zM307 539q0 -57 8 -109t26 -109q35 -106 110 -174.5t190 -68.5
q95 0 168.5 57t112.5 152.5t39 202.5q0 110 -33.5 210.5t-108 166t-188.5 65.5q-162 0 -243 -111.5t-81 -281.5z" />
    <glyph glyph-name="idieresis" unicode="&#xef;" horiz-adv-x="1270" 
d="M516 922q-58 0 -85 -17q-25 -14 -31.5 -45.5t-6.5 -101.5v-506q0 -110 21 -171.5t102 -61.5v-19h-454v19q24 0 46.5 9t36.5 28q27 33 33 78l5 51l2 67v506q0 104 -21 167q-11 30 -37 48t-65 18v19h1147v-19q-75 0 -101 -60q-8 -26 -15 -72t-7 -101v-506q0 -109 21 -171
t102 -62v-19h-455v19q24 0 46.5 9t36.5 28q27 33 33 78l5 51l2 67v506q0 66 -6 98.5t-32 49t-85 16.5h-238z" />
    <glyph glyph-name="eth" unicode="&#xf0;" horiz-adv-x="1270" 
d="M604 1010l86 -3q19 0 36.5 -2.5t44.5 -8.5q18 -3 37.5 -7t36.5 -10q33 -9 72 -27q131 -57 205 -176t74 -284q0 -163 -72 -271.5t-205.5 -164.5t-299.5 -56l-223 8v-186q0 -116 20 -170q11 -31 35 -48.5t65 -17.5v-18h-454v18q39 0 63.5 15t38.5 50q21 59 21 169v938
q0 106 -21 169q-9 28 -35.5 46t-66.5 18v19h542zM393 924v-635q0 -74 12.5 -116t58 -64.5t136.5 -22.5q115 0 198 54.5t130 152.5t47 211q0 129 -54.5 223t-157 145.5t-228.5 51.5h-142z" />
    <glyph glyph-name="ntilde" unicode="&#xf1;" horiz-adv-x="1106" 
d="M973 -15q-25 11 -43 11l-37 -2l-59 -7l-135 -8q-64 0 -122 9t-115 29q-109 39 -196.5 110.5t-139.5 177t-52 234.5q0 139 62 249.5t175 176t252 65.5l146 -10l131 -12q51 0 86 22l59 -315l-12 -6q-51 100 -138 161.5t-198 61.5q-102 0 -179.5 -57t-120 -153.5
t-42.5 -196.5q0 -124 59.5 -226t158.5 -161.5t194 -59.5q109 0 207.5 56.5t148.5 154.5l14 -8z" />
    <glyph glyph-name="ograve" unicode="&#xf2;" horiz-adv-x="1024" 
d="M617 252q0 -30 1 -55t4.5 -54t17.5 -64q23 -60 110 -60v-19h-475v19q83 0 108 63t25 170v664q-123 0 -199.5 -30.5t-123.5 -91.5q-40 -54 -89 -169l-19 6l101 406q12 -15 35 -21l44 -6h42h627h14h12q44 0 57 5q24 3 37 22l101 -406l-19 -6q-60 159 -146.5 225t-264.5 66
v-664z" />
    <glyph glyph-name="oacute" unicode="&#xf3;" horiz-adv-x="983" 
d="M738 768q43 138 43 158q0 53 -74 65v19h313v-19q-33 -5 -58 -22q-19 -12 -38 -42l-14 -27l-14 -33l-21 -60l-318 -912q-54 -158 -130 -246t-222 -88q-108 0 -203 74l117 277l16 -11q-6 -24 -6 -49q0 -58 33 -105.5t90 -47.5q62 0 103.5 40t60.5 101l15 61l4 40l1 20
q0 90 -96 312l-239 546q-35 82 -67 127t-81 45v19h412v-19q-66 -8 -66 -61q0 -20 33 -109l231 -565z" />
    <glyph glyph-name="ocircumflex" unicode="&#xf4;" horiz-adv-x="1762" 
d="M983 289q0 -97 13 -135q7 -21 17 -33q12 -11 31 -22q42 -13 109 -13q94 0 165 54t110 151.5t39 212.5q0 125 -47 217.5t-136 141.5t-196 49h-105v-623zM778 912h-104q-108 0 -194 -47t-135.5 -142t-49.5 -219q0 -116 37 -210.5t109.5 -151t167.5 -56.5q76 0 108 13
q35 12 48 56t13 134v623zM776 1096q0 75 -6 123t-34 79t-82 31v19l329 53v-391h174q103 0 199 -33.5t169 -96.5t118 -164t45 -224q0 -157 -69 -268t-190 -167.5t-257 -56.5l-187 10v-188q0 -107 21 -170q11 -31 35 -48.5t65 -17.5v-18h-450v18q36 0 61 16.5t38 49.5
q21 60 21 170v188l-186 -10q-105 0 -196.5 29.5t-165.5 93.5q-70 60 -112 156t-42 213q0 126 42 222t117 162t172 100t199 34h172v86z" />
    <glyph glyph-name="otilde" unicode="&#xf5;" horiz-adv-x="1147" 
d="M979 160l43 -60q20 -29 51 -55q24 -20 58 -26v-19h-424v19q63 8 63 47q0 31 -78 151l-153 232l-148 -185q-122 -157 -122 -200q0 -36 61 -45v-19h-315v19q48 9 78 39t81 96l308 377l-173 247l-41 62l-27 39l-26 35q-19 22 -55 53q-17 13 -31.5 18.5t-29.5 5.5v19h440v-19
q-34 0 -51 -14q-17 -12 -17 -37q0 -41 64 -135l78 -115l92 121q78 104 78 137q0 36 -62 43v19h342v-19q-20 0 -33.5 -4.5t-22.5 -8.5q-2 -1 -19 -11q-33 -18 -66.5 -51.5t-65.5 -71.5l-55 -68l-137 -163z" />
    <glyph glyph-name="odieresis" unicode="&#xf6;" horiz-adv-x="1270" 
d="M807 0h-745v19q39 0 63 17t38 49q10 32 16 74.5t6 92.5v506q0 104 -21 167q-11 30 -37 48t-65 18v19h454v-19q-75 0 -101 -60q-8 -26 -15 -72t-7 -101v-506q0 -62 6 -93t33 -54q32 -19 84 -19h238q57 0 84 18t33 51t6 97v506q0 104 -21 167q-11 30 -37 48t-65 18v19h455
v-19q-75 0 -101 -60q-8 -26 -15 -72t-7 -101v-526q0 -197 78 -197q22 0 45 16l100 -385l-19 -6q-39 100 -104.5 175.5t-163 120t-215.5 44.5z" />
    <glyph glyph-name="divide" unicode="&#xf7;" horiz-adv-x="1229" 
d="M836 568q-189 -150 -408 -150q-130 0 -207 73.5t-77 198.5v68q0 104 -21 167q-11 30 -37 48t-65 18v19h454v-19q-77 0 -99.5 -51.5t-22.5 -161.5v-77q0 -80 49 -123t129 -43q73 0 157 31q18 7 39.5 16t38.5 19q34 20 70 51v106q0 104 -21 167q-11 30 -37 48t-65 18v19
h455v-19q-75 0 -101 -60q-8 -26 -15 -72t-7 -101v-506q0 -109 21 -171t102 -62v-19h-455v19q39 0 63 17t38 49q10 32 16 74.5t6 92.5v316z" />
    <glyph glyph-name="oslash" unicode="&#xf8;" horiz-adv-x="1843" 
d="M1149 1010v-19q-76 0 -100 -63q-11 -30 -17 -72.5t-6 -97.5v-506q0 -62 6 -93t33 -54q32 -19 84 -19h178q57 0 84 18t33 51t6 97v506q0 104 -21 167q-11 30 -37 48t-65 18v19h455v-19q-76 0 -100 -63q-11 -30 -17 -72.5t-6 -97.5v-506q0 -110 21 -171.5t102 -61.5v-19
h-1720v19q39 0 63 17t38 49q10 32 16 74.5t6 92.5v506q0 104 -21 167q-11 30 -37 48t-65 18v19h454v-19q-75 0 -101 -60q-8 -26 -15 -72t-7 -101v-506q0 -62 6 -93t33 -54q32 -19 84 -19h179q58 0 84 19q24 15 31 49q3 17 5 40.5t2 57.5v506q0 104 -21 167q-9 31 -35 48
q-24 18 -66 18v19h454z" />
    <glyph glyph-name="ugrave" unicode="&#xf9;" horiz-adv-x="1843" 
d="M1381 0h-1319v19q39 0 63 17t38 49q10 32 16 74.5t6 92.5v506q0 104 -21 167q-11 30 -37 48t-65 18v19h454v-19q-75 0 -101 -60q-8 -26 -15 -72t-7 -101v-506q0 -62 6 -93t33 -54q32 -19 84 -19h179q58 0 84 19q24 15 31 49q3 17 5 40.5t2 57.5v506q0 104 -21 167
q-9 31 -35 48q-24 18 -66 18v19h454v-19q-76 0 -100 -63q-11 -30 -17 -72.5t-6 -97.5v-506q0 -62 6 -93t33 -54q32 -19 84 -19h178q57 0 84 18t33 51t6 97v506q0 104 -21 167q-11 30 -37 48t-65 18v19h455v-19q-76 0 -100 -63q-11 -30 -17 -72.5t-6 -97.5v-526
q0 -197 78 -197q23 0 45 16l100 -385l-18 -6q-39 102 -105 176.5t-163 120.5q-41 17 -98.5 30t-116.5 13z" />
    <glyph glyph-name="uacute" unicode="&#xfa;" horiz-adv-x="1270" 
d="M557 250v-36q0 -22 2 -34l1 -23l8 -31q6 -20 35 -32l35 -6l59 -2q91 0 159 25t107 75t39 117q0 85 -51 148t-153.5 100t-240.5 37v-338zM348 926q-103 0 -170.5 -33.5t-115.5 -100.5q-42 -60 -85 -167l-18 6l101 406q20 -27 120 -27h521v-19q-45 0 -75 -17t-45 -49
q-24 -59 -24 -167v-86q197 0 349 -42.5t240.5 -127t88.5 -203.5q0 -90 -56.5 -156.5t-170.5 -104.5t-270 -38h-512v19q35 0 67 24q21 18 34 53l8 32l6 42l7 82v674z" />
    <glyph glyph-name="ucircumflex" unicode="&#xfb;" horiz-adv-x="1680" 
d="M1495 252q0 -110 21 -171.5t102 -61.5v-19h-454v19q40 0 64 17.5t37 48.5q21 60 21 167v506q0 104 -21 167q-9 31 -35 48q-24 18 -66 18v19h454v-19q-76 0 -100 -63q-11 -30 -17 -72.5t-6 -97.5v-506zM62 0v19q39 0 63 17t38 49q10 32 16 74.5t6 92.5v506q0 104 -21 167
q-11 30 -37 48t-65 18v19h475v-19q-45 0 -75 -17t-45 -49q-24 -59 -24 -167v-86q197 0 349 -42.5t240.5 -127t88.5 -203.5q0 -89 -56 -156t-173 -105t-268 -38h-512zM393 250v-36q0 -22 2 -34l1 -23l8 -31q6 -20 35 -32l35 -6l59 -2q137 0 221 57t84 160q0 88 -51.5 150.5
t-152 98.5t-241.5 36v-338z" />
    <glyph glyph-name="udieresis" unicode="&#xfc;" horiz-adv-x="1106" 
d="M62 0v19q39 0 63 17t38 49q10 32 16 74.5t6 92.5v506q0 104 -21 167q-11 30 -37 48t-65 18v19h475v-19q-45 0 -75 -17t-45 -49q-24 -59 -24 -167v-86q197 0 349 -42.5t240.5 -127t88.5 -203.5q0 -89 -56 -156t-173 -105t-268 -38h-512zM393 250v-36q0 -22 2 -34l1 -23
l8 -31q6 -20 35 -32l35 -6l59 -2q137 0 221 57t84 160q0 88 -51.5 150.5t-152 98.5t-241.5 36v-338z" />
    <glyph glyph-name="yacute" unicode="&#xfd;" horiz-adv-x="1065" 
d="M770 494h-497v94h489q-14 100 -58 178.5t-116 123t-166 44.5q-78 0 -145.5 -27.5t-118.5 -80.5q-25 -25 -45.5 -52t-40.5 -65l-14 8l104 309q21 -12 59 -12q22 0 96 9t113 9q115 0 221 -41.5t180 -115.5t117 -179.5t43 -222.5q0 -110 -42.5 -202t-118 -155.5t-175.5 -99
t-204 -35.5q-44 0 -146.5 11.5t-132.5 11.5q-61 0 -90 -23l-59 302l12 6q104 -209 342 -209q106 0 195.5 54t143.5 149t54 205v6z" />
    <glyph glyph-name="thorn" unicode="&#xfe;" horiz-adv-x="1721" 
d="M797 539q0 -62 7 -115q3 -28 7.5 -52t14.5 -55q30 -103 100.5 -171t183.5 -68q96 0 162.5 56t101.5 154t35 202q0 58 -6.5 111.5t-22.5 102.5q-28 99 -97.5 163.5t-182.5 64.5q-161 0 -232 -111t-71 -282zM568 580q15 135 92 235.5t198 158.5q60 28 122.5 42t131.5 14
q148 0 268 -60.5t191.5 -176.5t71.5 -275q0 -160 -72.5 -281.5t-202.5 -189.5t-276 -68q-72 0 -138.5 15.5t-126.5 46.5q-118 60 -191 176.5t-73 268.5h-170v-234q0 -110 21 -171.5t102 -61.5v-19h-454v19q39 0 63 17t38 49q10 32 16 74.5t6 92.5v506q0 104 -21 167
q-11 30 -37 48t-65 18v19h454v-19q-75 0 -101 -60q-8 -26 -15 -72t-7 -101v-178h175z" />
    <glyph glyph-name="ydieresis" unicode="&#xff;" horiz-adv-x="1188" 
d="M795 582v196q0 77 -9.5 103.5t-55 35.5t-162.5 9q-199 0 -199 -123q0 -65 57.5 -110.5t149.5 -69.5zM416 576q-276 99 -276 245q0 119 111 155q52 14 127 24q34 4 78.5 7t86.5 3h584v-19q-53 0 -83 -33q-23 -31 -34 -81q-6 -47 -6 -119v-506q0 -108 21 -170.5t102 -62.5
v-19h-457l2 23q75 0 99 60t24 167v240l-62 12l-108 23q-143 -163 -234 -349l-15 -40q-3 -12 -4 -18t-1 -19q0 -63 78 -80v-19h-439v19q57 18 179 231q83 149 227 326z" />
    <glyph glyph-name="endash" unicode="&#x2013;" horiz-adv-x="1024" 
d="M43 604q14 -8 34.5 -12t53.5 -4h764q58 0 95.5 9t60.5 44h16l-86 -229q-12 8 -33 12l-55 4h-764q-60 0 -96 -9q-37 -6 -60 -44h-16z" />
    <glyph glyph-name="emdash" unicode="&#x2014;" horiz-adv-x="2048" 
d="M43 604q14 -8 34.5 -12t53.5 -4h1788q58 0 95.5 9t60.5 44h16l-86 -229q-12 8 -33 12l-55 4h-1788q-60 0 -96 -9q-37 -6 -60 -44h-16z" />
    <glyph glyph-name="c274" unicode="&#x2015;" 
 />
    <glyph glyph-name="c275" unicode="&#x2016;" 
 />
    <glyph glyph-name="c276" unicode="&#x2017;" 
 />
    <glyph glyph-name="quoteleft" unicode="&#x2018;" horiz-adv-x="615" 
d="M107 934l233 414h168q-27 -24 -67 -101l-78 -163q-45 -104 -45 -127q0 -12 8 -23h-219z" />
    <glyph glyph-name="quoteright" unicode="&#x2019;" horiz-adv-x="615" 
d="M508 1348l-233 -414h-168q30 24 67 100l78 164q45 95 45 125q0 17 -8 25h219z" />
    <glyph glyph-name="quotesinglbase" unicode="&#x201a;" horiz-adv-x="656" 
d="M529 242l-234 -414h-168q27 22 68 100l78 164q45 95 45 125q0 13 -9 25h220z" />
    <glyph glyph-name="c277" unicode="&#x201b;" 
 />
    <glyph glyph-name="quotedblleft" unicode="&#x201c;" horiz-adv-x="901" 
d="M412 934l233 414h168q-30 -27 -67 -101l-78 -163q-45 -104 -45 -127q0 -12 8 -23h-219zM88 934l234 414h168q-29 -26 -68 -101l-78 -163q-45 -104 -45 -127q0 -10 8 -23h-219z" />
    <glyph glyph-name="quotedblright" unicode="&#x201d;" horiz-adv-x="901" 
d="M490 1348l-234 -414h-168q26 21 68 100l78 164q45 95 45 125q0 16 -8 25h219zM813 1348l-233 -414h-168q30 27 67 100l78 164q45 95 45 125q0 17 -8 25h219z" />
    <glyph glyph-name="quotedblbase" unicode="&#x201e;" horiz-adv-x="901" 
d="M490 242l-234 -414h-168q27 24 68 100l78 164q45 95 45 125q0 16 -8 25h219zM813 242l-233 -414h-168q30 27 67 100l78 164q45 95 45 125q0 17 -8 25h219z" />
    <glyph glyph-name="c278" unicode="&#x201f;" 
 />
    <glyph glyph-name="dagger" unicode="&#x2020;" horiz-adv-x="1352" 
d="M404 697l-38 -8l-32 -3q-42 0 -70 28q-26 29 -26 77q0 46 26 73t72 27q23 0 28 -2l29 -6l242 -55l-57 374l-8 76q0 44 29 70t73 26q50 0 77 -26t27 -76q0 -30 -6 -63l-57 -381l233 55l35 6l39 2q42 0 68 -28.5t26 -71.5q0 -46 -24.5 -75.5t-69.5 -29.5q-16 0 -29.5 2
t-35.5 9l-242 49q35 -197 98 -291q-51 -153 -80.5 -349.5t-29.5 -427.5h-45q0 40 -2 86q-5 114 -5 139q0 47 -6 94.5t-16 108.5q-29 194 -82 349q65 114 90 291z" />
    <glyph glyph-name="daggerdbl" unicode="&#x2021;" horiz-adv-x="1352" 
d="M402 697l-38 -8l-30 -3q-43 0 -71 28q-25 31 -25 77q0 47 25.5 73.5t72.5 26.5l23 -1q8 0 32 -7l242 -55l-55 374l-6 43l-2 33q0 44 29 70t73 26q22 0 43 -6t33 -20q28 -25 28 -76v-14l-2 -21l-6 -28l-57 -381l233 53l38 7l36 3q42 0 69 -27.5t27 -72.5q0 -47 -26 -76
q-24 -29 -70 -29q-24 0 -63 9l-244 51q11 -104 82 -217q-70 -125 -82 -222l235 48q45 12 72 12q43 0 69.5 -29.5t26.5 -77.5q0 -39 -27 -71q-27 -27 -69 -27q-24 0 -65 6l-242 58l57 -374l8 -71q0 -48 -28 -75q-14 -14 -32 -21t-44 -7q-44 0 -73 26t-29 70q0 30 6 66l57 386
l-231 -54l-36 -7l-36 -3q-40 0 -68 28q-24 29 -24 72t24 76q26 29 72 29l62 -8l237 -52q0 26 -4 48.5t-16 53.5q-20 57 -58 120q37 55 57.5 110.5t20.5 106.5z" />
    <glyph glyph-name="bullet" unicode="&#x2022;" horiz-adv-x="738" 
d="M166 672q0 56 27 107.5t75 82.5t109 31q82 0 137.5 -66t55.5 -147q0 -83 -60.5 -154t-144.5 -71q-52 0 -98.5 30t-73.5 82t-27 105z" />
    <glyph glyph-name="c279" unicode="&#x2023;" 
 />
    <glyph glyph-name="c280" unicode="&#x2024;" 
 />
    <glyph glyph-name="c281" unicode="&#x2025;" 
 />
    <glyph glyph-name="ellipsis" unicode="&#x2026;" horiz-adv-x="2048" 
d="M207 123q0 62 40 105t99 43q53 0 91 -43t38 -99q0 -53 -39 -101.5t-96 -48.5q-54 0 -93.5 44t-39.5 100zM889 123q0 62 40 105t99 43q54 0 91.5 -43t37.5 -99t-39.5 -103t-97.5 -47q-54 0 -92.5 45.5t-38.5 98.5zM1571 123q0 62 40 105t99 43q54 0 91.5 -43t37.5 -99
q0 -53 -39 -101.5t-96 -48.5q-54 0 -93.5 44t-39.5 100z" />
    <glyph glyph-name="c282" unicode="&#x2027;" 
 />
    <glyph glyph-name="c283" unicode="&#x2028;" 
 />
    <glyph glyph-name="c284" unicode="&#x2029;" 
 />
    <glyph glyph-name="c285" unicode="&#x202a;" 
 />
    <glyph glyph-name="c286" unicode="&#x202b;" 
 />
    <glyph glyph-name="c287" unicode="&#x202c;" 
 />
    <glyph glyph-name="c288" unicode="&#x202d;" 
 />
    <glyph glyph-name="c289" unicode="&#x202e;" 
 />
    <glyph glyph-name="c290" unicode="&#x202f;" 
 />
    <glyph glyph-name="perthousand" unicode="&#x2030;" horiz-adv-x="2622" 
d="M1077 1180l20 44l15 38q6 18 6 33q0 34 -43 34v19h230v-19q-26 0 -53 -31q-24 -30 -42 -72l-30 -71l-432 -1024q-25 -62 -29 -84q0 -28 39 -28v-19h-229v19q40 12 54.5 30.5t43.5 81.5zM748 951q0 -105 -34.5 -199.5t-110.5 -156.5t-181 -62q-111 0 -185 56.5t-112.5 156
t-38.5 205.5q0 105 37.5 203t115.5 159t185 61q165 0 244.5 -125t79.5 -298zM234 926q0 -72 15 -144t55.5 -124t109.5 -52q108 0 147 122t39 263q0 117 -36 213.5t-134 96.5q-111 0 -153.5 -117.5t-42.5 -257.5zM1749 398q0 -101 -36 -198t-111 -159t-178 -62
q-112 0 -186.5 59t-112 155t-37.5 205t36.5 203.5t114 157t187.5 62.5q164 0 243.5 -124.5t79.5 -298.5zM1235 373q0 -72 15 -144t55.5 -124t109.5 -52q108 0 147 121q20 63 30 126.5t10 138.5q0 116 -36.5 212.5t-133.5 96.5q-110 0 -153.5 -117.5t-43.5 -257.5zM2554 398
q0 -20 -0.5 -43t-7.5 -59q-7 -45 -27 -98q-34 -94 -110.5 -156.5t-180.5 -62.5q-162 0 -248.5 123.5t-86.5 295.5q0 109 36.5 203.5t114 157t187.5 62.5q164 0 243.5 -124.5t79.5 -298.5zM2040 373q0 -72 15 -144t55.5 -124t109.5 -52q108 0 147 121q20 63 30 126.5
t10 138.5q0 116 -36.5 212.5t-133.5 96.5q-110 0 -153.5 -117.5t-43.5 -257.5z" />
    <glyph glyph-name="c291" unicode="&#x2031;" 
 />
    <glyph glyph-name="c292" unicode="&#x2032;" 
 />
    <glyph glyph-name="c293" unicode="&#x2033;" 
 />
    <glyph glyph-name="c294" unicode="&#x2034;" 
 />
    <glyph glyph-name="c295" unicode="&#x2035;" 
 />
    <glyph glyph-name="c296" unicode="&#x2036;" 
 />
    <glyph glyph-name="c297" unicode="&#x2037;" 
 />
    <glyph glyph-name="c298" unicode="&#x2038;" 
 />
    <glyph glyph-name="guilsinglleft" unicode="&#x2039;" horiz-adv-x="451" 
d="M279 778l55 -26l-84 -246l84 -252l-55 -24l-148 276z" />
    <glyph glyph-name="guilsinglright" unicode="&#x203a;" horiz-adv-x="451" 
d="M172 230l-55 26l84 246l-84 252l55 24l148 -276z" />
    <glyph glyph-name="trademark" unicode="&#x2122;" horiz-adv-x="1884" 
d="M1612 1278h-4l-283 -672h-16l-277 660h-4v-516q0 -59 15 -92q16 -31 78 -31v-18h-248v18q52 0 70 30t18 93v522q0 27 -15.5 33t-58.5 6v37h252l219 -520l223 520h256v-37q-66 0 -83 -15.5t-17 -66.5v-491q0 -59 18 -86q19 -25 82 -25v-18h-319v18q29 0 48 6t28 18.5
t14 35.5l4 55v536zM520 746q0 -67 23 -91q14 -12 39 -21l28 -5l37 -2v-18h-378v18q50 0 76.5 12t38.5 40t12 73v530q-96 0 -128 -8q-34 -6 -56 -34l-17 -37q-6 -23 -6 -52h-45v197h628v-197h-45q0 60 -15.5 87.5t-48.5 36.5l-40 5l-60 2h-43v-536z" />
  </font>
</defs>
</svg>
